<svg width="525" height="611" viewBox="0 0 525 611" fill="none" xmlns="http://www.w3.org/2000/svg">
<path d="M0.998108 1H509C517.284 1 524 7.71573 524 16V595C524 603.284 517.284 610 509 610H0.998108V1Z" fill="url(#paint0_linear)" stroke="black" stroke-opacity="0.55"/>
<g filter="url(#filter0_b)">
<path opacity="0.1" d="M289.817 215.853C264 215.885 239.151 209.147 215.381 201.661C191.613 194.176 168.027 185.794 142.691 182.243C126.396 179.959 107.867 180.169 95.1283 188.459C82.868 196.434 79.3172 209.633 77.6039 221.828C76.3165 231.001 75.7224 240.629 80.5465 249.021C83.8969 254.846 89.6299 259.648 93.6716 265.2C107.776 284.513 99.2943 309.185 85.5862 328.948C79.1589 338.22 71.6296 347.107 66.7703 356.91C61.91 366.714 59.9172 377.83 64.8737 387.506C69.785 397.096 80.8782 404.057 92.7838 408.811C116.96 418.483 145.109 420.557 172.5 421.355C233.134 423.126 293.886 419.514 354.475 415.902C376.897 414.566 399.419 413.221 421.378 409.351C433.57 407.205 446.124 404.019 454.768 397.036C465.739 388.171 467.984 373.696 459.998 363.292C446.611 345.842 411.304 342.551 401.702 323.669C396.407 313.274 400.973 301.354 407.698 291.334C422.12 269.836 446.946 250.579 447.364 226.534C447.651 210.021 434.74 193.912 415.458 186.736C395.247 179.219 367.69 181.152 353.529 195.162C338.968 209.595 312.612 215.83 289.817 215.853Z" fill="white"/>
<path d="M404.796 386.21C404.796 386.21 400.552 383.631 396.345 385.465C396.345 385.465 397.641 387.761 402.966 387.545L404.796 386.21Z" fill="#6C63FF"/>
<path d="M405.335 386.346C405.335 386.346 406.627 390.874 403.388 393.955C403.388 393.955 401.439 392.089 403.388 387.516L405.335 386.346Z" fill="#6C63FF"/>
<path d="M410.612 382C410.612 382 410.298 378.149 400.852 379.427C400.852 379.427 400.808 381.911 404.123 383.087C407.438 384.264 408.958 383.271 410.612 382Z" fill="#6C63FF"/>
<path d="M411.206 381.974C411.206 381.974 415.199 383.154 411.638 391.31C411.638 391.31 409.003 390.769 408.53 387.523C408.056 384.276 409.459 383.157 411.206 381.974Z" fill="#6C63FF"/>
<path d="M416.539 376.511C416.539 376.511 417.082 370.174 407.428 370.823C407.428 370.823 406.737 376.546 414.836 378.034L416.539 376.511Z" fill="#6C63FF"/>
<path d="M422.918 369.357C422.918 369.357 421.595 362.174 411.946 364.314C411.946 364.314 411.911 370.524 421.344 371.067L422.918 369.357Z" fill="#6C63FF"/>
<path d="M427.581 361.961C427.581 361.961 425.363 354.965 415.803 357.057C415.803 357.057 418.079 363.35 426.945 363.252L427.581 361.961Z" fill="#6C63FF"/>
<path d="M432.008 354.736C432.008 354.736 429.843 347.477 420.611 349.649C420.611 349.649 423.692 356.545 431.397 355.964L432.008 354.736Z" fill="#6C63FF"/>
<path d="M434.861 347.874C434.861 347.874 433.196 338.996 424.59 340.961C424.59 340.961 427.091 349.038 434.229 349.168L434.861 347.874Z" fill="#6C63FF"/>
<path d="M437.538 339.585C437.538 339.585 435.538 330.637 426.831 333.225C426.831 333.225 430.244 341.683 436.919 340.809L437.538 339.585Z" fill="#6C63FF"/>
<path d="M439.182 331.87C439.182 331.87 436.008 322.919 429.277 323.161C429.277 323.161 432.52 332.615 438.619 333.654L439.182 331.87Z" fill="#6C63FF"/>
<path d="M440.246 324.341C440.246 324.341 436.792 313.568 431.315 314.398C431.315 314.398 433.704 322.633 440.052 326.02L440.246 324.341Z" fill="#6C63FF"/>
<path d="M440.847 315.358C440.847 315.358 437.607 306.381 432.212 306.022C432.212 306.022 434.416 314.856 440.74 317.692L440.847 315.358Z" fill="#6C63FF"/>
<path d="M441.499 306.976C441.499 306.976 437.462 297.99 433.902 297.787C433.902 297.787 435.656 306.636 441.154 308.451L441.499 306.976Z" fill="#6C63FF"/>
<path d="M441.945 299.179C441.945 299.179 439.461 289.421 435.894 288.61C435.894 288.61 436.381 296.594 441.585 299.911L441.945 299.179Z" fill="#6C63FF"/>
<path d="M443.292 288.966C443.292 288.966 440.681 281.185 437.79 279.999C437.79 279.999 438.36 289.173 442.625 290.867L443.292 288.966Z" fill="#6C63FF"/>
<path d="M444.408 282.288L444.933 268.571C444.933 268.571 439.527 278.911 444.017 284.695L444.408 282.288Z" fill="#6C63FF"/>
<path d="M448.58 268.644C448.58 268.644 452.472 258.628 453.416 258.068C453.416 258.068 445.782 264.567 446.528 272.927L448.58 268.644Z" fill="#6C63FF"/>
<path d="M416.802 376.464C416.802 376.464 423.647 375.64 423.444 384.546C423.444 384.546 417.258 385.475 415.237 378.107L416.802 376.464Z" fill="#6C63FF"/>
<path d="M423.243 369.115C423.243 369.115 431.152 369.093 430.496 378.209C430.496 378.209 423.855 379.303 421.664 370.839L423.243 369.115Z" fill="#6C63FF"/>
<path d="M427.657 362.549C427.657 362.549 434.837 359.449 439.43 367.452C439.43 367.452 432.8 370.034 427.022 363.843L427.657 362.549Z" fill="#6C63FF"/>
<path d="M432.167 354.803C432.167 354.803 439.52 351.506 443.838 359.321C443.838 359.321 436.177 361.751 431.559 356.04L432.167 354.803Z" fill="#6C63FF"/>
<path d="M434.768 348.068C434.768 348.068 441.845 341.845 447.492 348.138C447.492 348.138 440.263 353.261 434.444 349.455L434.768 348.068Z" fill="#6C63FF"/>
<path d="M437.137 339.372C437.137 339.372 444.255 333.012 449.857 339.664C449.857 339.664 441.869 344.888 436.881 340.707L437.137 339.372Z" fill="#6C63FF"/>
<path d="M438.467 331.616C438.467 331.616 443.952 323.667 450.41 325.441C450.41 325.441 444.718 333.858 438.529 333.483L438.467 331.616Z" fill="#6C63FF"/>
<path d="M440.083 324.29C440.083 324.29 445.609 314.28 450.839 316.023C450.839 316.023 446.852 323.718 439.942 325.978L440.083 324.29Z" fill="#6C63FF"/>
<path d="M440.467 314.836C440.467 314.836 446.148 306.957 451.47 307.92C451.47 307.92 446.825 315.911 439.914 317.116L440.467 314.836Z" fill="#6C63FF"/>
<path d="M440.909 306.801C440.909 306.801 445.312 297.958 448.89 297.898C448.89 297.898 446.777 306.677 441.206 308.302L440.909 306.801Z" fill="#6C63FF"/>
<path d="M441.773 298.988C441.773 298.988 446.666 290.034 450.344 290.015C450.344 290.015 447.84 297.672 441.935 299.774L441.773 298.988Z" fill="#6C63FF"/>
<path d="M442.508 289.526C442.508 289.526 446.169 282.117 449.202 281.277C449.202 281.277 447.371 290.308 442.912 291.491L442.508 289.526Z" fill="#6C63FF"/>
<path d="M444.842 282.018L453.025 270.542C453.025 270.542 450.928 281.862 443.647 284.215L444.842 282.018Z" fill="#6C63FF"/>
<path d="M450.458 269.569C450.458 269.569 459.968 263.528 460.309 262.552C460.309 262.552 455.48 271.013 446.497 272.507L450.458 269.569Z" fill="#6C63FF"/>
<path d="M451.028 266.851C451.028 266.851 461.942 257.187 464.737 257.197C464.737 257.197 455.73 257.575 450.766 266.335L451.028 266.851Z" fill="#6C63FF"/>
<path d="M442.615 290.96L443.012 291.007C445.064 276.225 448.055 267.477 451.432 266.405L451.301 266.056C447.72 267.2 444.708 275.814 442.615 290.96Z" fill="#444053"/>
<path d="M439.596 326.312L440.198 326.357C440.325 324.977 440.422 323.565 440.487 322.156C441.06 309.921 441.948 298.683 443.116 290.26L442.771 289.863C441.599 298.305 440.46 309.879 439.886 322.134C439.821 323.533 439.724 324.939 439.596 326.312Z" fill="#444053"/>
<path d="M393.592 393.262C393.696 393.221 404.275 388.871 415.254 378.499C421.687 372.424 427.032 365.447 431.09 357.83C436.167 348.313 439.262 336.618 440.298 325.257L439.673 325.527C437.341 351.029 424.731 368.454 414.705 377.945C403.832 388.226 393.371 392.531 393.267 392.572L393.592 393.262Z" fill="#444053"/>
<path d="M420.984 208.101H89.1189C88.3354 208.101 87.583 208.388 87.0289 208.898C86.4739 209.409 86.1623 210.101 86.1623 210.823V218.753H423.941V210.823C423.941 210.101 423.629 209.409 423.075 208.898C422.52 208.388 421.769 208.101 420.984 208.101Z" fill="#3F3D56"/>
<path d="M86.1623 218.753V397.215C86.1623 398.67 86.7905 400.066 87.9086 401.096C89.0267 402.125 90.5426 402.703 92.1236 402.703H417.979C419.56 402.703 421.076 402.125 422.194 401.096C423.312 400.066 423.941 398.67 423.941 397.215V218.753H86.1623Z" fill="white"/>
<path opacity="0.8" d="M91.5125 214.62C92.2759 214.62 92.8941 214.05 92.8941 213.348C92.8941 212.645 92.2759 212.076 91.5125 212.076C90.75 212.076 90.1309 212.645 90.1309 213.348C90.1309 214.05 90.75 214.62 91.5125 214.62Z" fill="#FA5959"/>
<path opacity="0.8" d="M95.3117 214.62C96.0751 214.62 96.6933 214.05 96.6933 213.348C96.6933 212.645 96.0751 212.076 95.3117 212.076C94.5492 212.076 93.9301 212.645 93.9301 213.348C93.9301 214.05 94.5492 214.62 95.3117 214.62Z" fill="#FED253"/>
<path opacity="0.8" d="M99.1109 214.62C99.8734 214.62 100.493 214.05 100.493 213.348C100.493 212.645 99.8734 212.076 99.1109 212.076C98.3475 212.076 97.7293 212.645 97.7293 213.348C97.7293 214.05 98.3475 214.62 99.1109 214.62Z" fill="#8CCF4D"/>
<path opacity="0.05" d="M389.026 248.51H117.561V358.409H389.026V248.51Z" fill="black"/>
<path d="M386.954 249.343H119.633V356.819H386.954V249.343Z" fill="#3F3D56"/>
<path d="M192.508 277.004C187.248 277.004 182.106 278.44 177.733 281.13C173.359 283.82 169.951 287.644 167.938 292.118C165.925 296.592 165.398 301.515 166.424 306.264C167.451 311.014 169.984 315.377 173.703 318.801C177.422 322.225 182.16 324.557 187.319 325.502C192.478 326.446 197.825 325.961 202.684 324.108C207.544 322.255 211.697 319.117 214.62 315.091C217.541 311.064 219.101 306.33 219.101 301.488C219.101 298.272 218.413 295.089 217.077 292.118C215.741 289.148 213.781 286.448 211.313 284.175C208.843 281.901 205.911 280.098 202.684 278.867C199.458 277.637 195.999 277.004 192.508 277.004ZM197.277 302.076V313.67H187.876V302.076C186.576 301.169 185.617 299.909 185.135 298.474C184.654 297.039 184.674 295.5 185.194 294.076C185.713 292.652 186.705 291.414 188.029 290.537C189.355 289.66 190.945 289.189 192.577 289.189C194.208 289.189 195.799 289.66 197.124 290.537C198.448 291.414 199.44 292.652 199.96 294.076C200.479 295.5 200.5 297.039 200.018 298.474C199.537 299.909 198.578 301.169 197.277 302.076Z" fill="#6C63FF"/>
<path opacity="0.05" d="M192.508 277.004C187.248 277.004 182.106 278.44 177.733 281.13C173.359 283.82 169.951 287.644 167.938 292.118C165.925 296.592 165.398 301.515 166.424 306.264C167.451 311.014 169.984 315.377 173.703 318.801C177.422 322.225 182.16 324.557 187.319 325.502C192.478 326.446 197.825 325.961 202.684 324.108C207.544 322.255 211.697 319.117 214.62 315.091C217.541 311.064 219.101 306.33 219.101 301.488C219.101 298.272 218.413 295.089 217.077 292.118C215.741 289.148 213.781 286.448 211.313 284.175C208.843 281.901 205.911 280.098 202.684 278.867C199.458 277.637 195.999 277.004 192.508 277.004ZM197.277 302.076V313.67H187.876V302.076C186.576 301.169 185.617 299.909 185.135 298.474C184.654 297.039 184.674 295.5 185.194 294.076C185.713 292.652 186.705 291.414 188.029 290.537C189.355 289.66 190.945 289.189 192.577 289.189C194.208 289.189 195.799 289.66 197.124 290.537C198.448 291.414 199.44 292.652 199.96 294.076C200.479 295.5 200.5 297.039 200.018 298.474C199.537 299.909 198.578 301.169 197.277 302.076Z" fill="black"/>
<path d="M192.508 270.008C185.745 270.008 179.134 271.854 173.512 275.313C167.888 278.772 163.506 283.689 160.918 289.441C158.33 295.193 157.652 301.523 158.972 307.629C160.291 313.736 163.548 319.345 168.33 323.747C173.112 328.15 179.205 331.148 185.837 332.363C192.47 333.577 199.345 332.954 205.593 330.571C211.84 328.189 217.18 324.154 220.937 318.977C224.694 313.8 226.7 307.714 226.7 301.488C226.7 293.139 223.097 285.132 216.685 279.228C210.273 273.325 201.576 270.008 192.508 270.008ZM198.638 302.245V317.148H186.55V302.245C184.876 301.079 183.643 299.458 183.024 297.612C182.405 295.766 182.431 293.788 183.099 291.957C183.766 290.125 185.043 288.533 186.746 287.405C188.45 286.277 190.495 285.67 192.594 285.67C194.692 285.67 196.738 286.277 198.441 287.405C200.145 288.533 201.421 290.125 202.089 291.957C202.756 293.788 202.783 295.766 202.164 297.612C201.545 299.458 200.312 301.079 198.638 302.245Z" fill="#6C63FF"/>
<path d="M351.38 297.357H240.86V308.168H351.38V297.357Z" fill="white"/>
<path d="M351.38 317.072H327.549V327.883H351.38V317.072Z" fill="#6C63FF"/>
<path d="M251.74 302.601H249.74L251.518 300.966C251.55 300.936 251.568 300.896 251.568 300.853C251.568 300.811 251.55 300.771 251.518 300.741C251.502 300.726 251.483 300.714 251.462 300.706C251.441 300.698 251.419 300.694 251.396 300.694C251.373 300.694 251.351 300.698 251.33 300.706C251.309 300.714 251.29 300.726 251.273 300.741L249.494 302.378V300.534C249.494 300.492 249.476 300.451 249.444 300.421C249.411 300.392 249.368 300.375 249.322 300.375C249.276 300.376 249.233 300.393 249.201 300.422C249.169 300.452 249.15 300.492 249.149 300.534V302.378L247.374 300.731C247.358 300.716 247.339 300.704 247.318 300.696C247.297 300.688 247.274 300.684 247.251 300.684C247.228 300.684 247.206 300.688 247.185 300.696C247.164 300.704 247.145 300.716 247.129 300.731C247.097 300.761 247.079 300.802 247.079 300.844C247.079 300.886 247.097 300.927 247.129 300.957L248.907 302.591H246.904C246.858 302.592 246.815 302.609 246.783 302.639C246.751 302.668 246.732 302.708 246.731 302.75C246.731 302.792 246.75 302.833 246.782 302.863C246.814 302.892 246.858 302.909 246.904 302.909H248.907L247.129 304.547C247.097 304.577 247.079 304.617 247.079 304.66C247.079 304.702 247.097 304.742 247.129 304.772C247.162 304.801 247.206 304.817 247.251 304.817C247.297 304.817 247.34 304.801 247.374 304.772L249.149 303.135V304.976C249.149 305.018 249.168 305.059 249.2 305.088C249.232 305.118 249.276 305.135 249.322 305.135C249.368 305.135 249.411 305.118 249.444 305.088C249.476 305.059 249.494 305.018 249.494 304.976V303.135L251.273 304.772C251.307 304.801 251.35 304.817 251.396 304.817C251.441 304.817 251.485 304.801 251.518 304.772C251.55 304.742 251.568 304.702 251.568 304.66C251.568 304.617 251.55 304.577 251.518 304.547L249.74 302.909H251.74C251.786 302.909 251.829 302.892 251.862 302.863C251.894 302.833 251.912 302.792 251.912 302.75C251.91 302.71 251.89 302.672 251.858 302.644C251.826 302.616 251.784 302.601 251.74 302.601Z" fill="#6C63FF"/>
<path d="M258.992 302.601H256.993L258.771 300.966C258.803 300.936 258.821 300.896 258.821 300.853C258.821 300.811 258.803 300.771 258.771 300.741C258.755 300.726 258.736 300.714 258.715 300.706C258.694 300.698 258.672 300.694 258.649 300.694C258.626 300.694 258.604 300.698 258.583 300.706C258.562 300.714 258.543 300.726 258.527 300.741L256.747 302.378V300.534C256.747 300.492 256.729 300.451 256.697 300.421C256.664 300.392 256.621 300.375 256.575 300.375C256.529 300.376 256.486 300.393 256.454 300.422C256.422 300.452 256.403 300.492 256.403 300.534V302.378L254.627 300.731C254.611 300.716 254.592 300.704 254.571 300.696C254.55 300.688 254.527 300.684 254.504 300.684C254.482 300.684 254.459 300.688 254.438 300.696C254.417 300.704 254.398 300.716 254.382 300.731C254.35 300.761 254.332 300.802 254.332 300.844C254.332 300.886 254.35 300.927 254.382 300.957L256.16 302.591H254.157C254.111 302.592 254.068 302.609 254.036 302.639C254.004 302.668 253.985 302.708 253.985 302.75C253.985 302.792 254.003 302.833 254.035 302.863C254.067 302.892 254.111 302.909 254.157 302.909H256.16L254.382 304.547C254.35 304.577 254.332 304.617 254.332 304.66C254.332 304.702 254.35 304.742 254.382 304.772C254.415 304.801 254.459 304.817 254.504 304.817C254.55 304.817 254.593 304.801 254.627 304.772L256.403 303.135V304.976C256.403 305.018 256.421 305.059 256.453 305.088C256.485 305.118 256.529 305.135 256.575 305.135C256.621 305.135 256.664 305.118 256.697 305.088C256.729 305.059 256.747 305.018 256.747 304.976V303.135L258.527 304.772C258.56 304.801 258.603 304.817 258.649 304.817C258.694 304.817 258.738 304.801 258.771 304.772C258.803 304.742 258.821 304.702 258.821 304.66C258.821 304.617 258.803 304.577 258.771 304.547L256.993 302.909H258.992C259.039 302.909 259.082 302.892 259.115 302.863C259.147 302.833 259.165 302.792 259.165 302.75C259.163 302.71 259.143 302.672 259.111 302.644C259.079 302.616 259.037 302.601 258.992 302.601Z" fill="#6C63FF"/>
<path d="M266.245 302.601H264.245L266.024 300.966C266.056 300.936 266.074 300.896 266.074 300.853C266.074 300.811 266.056 300.771 266.024 300.741C266.008 300.726 265.989 300.714 265.968 300.706C265.947 300.698 265.925 300.694 265.902 300.694C265.879 300.694 265.857 300.698 265.836 300.706C265.814 300.714 265.795 300.726 265.779 300.741L264 302.378V300.534C264 300.492 263.982 300.451 263.95 300.421C263.918 300.392 263.874 300.375 263.828 300.375C263.783 300.376 263.739 300.393 263.706 300.422C263.674 300.452 263.655 300.492 263.655 300.534V302.378L261.88 300.731C261.864 300.716 261.845 300.704 261.824 300.696C261.803 300.688 261.78 300.684 261.757 300.684C261.735 300.684 261.712 300.688 261.691 300.696C261.67 300.704 261.651 300.716 261.635 300.731C261.602 300.761 261.584 300.802 261.584 300.844C261.584 300.886 261.602 300.927 261.635 300.957L263.413 302.591H261.41C261.364 302.592 261.321 302.609 261.289 302.639C261.257 302.668 261.238 302.708 261.238 302.75C261.238 302.792 261.256 302.833 261.288 302.863C261.32 302.892 261.364 302.909 261.41 302.909H263.413L261.635 304.547C261.602 304.577 261.584 304.617 261.584 304.66C261.584 304.702 261.602 304.742 261.635 304.772C261.668 304.801 261.712 304.817 261.757 304.817C261.803 304.817 261.847 304.801 261.88 304.772L263.655 303.135V304.976C263.655 305.018 263.673 305.059 263.705 305.088C263.738 305.118 263.782 305.135 263.828 305.135C263.874 305.135 263.918 305.118 263.95 305.088C263.982 305.059 264 305.018 264 304.976V303.135L265.779 304.772C265.812 304.801 265.857 304.817 265.902 304.817C265.947 304.817 265.991 304.801 266.024 304.772C266.056 304.742 266.074 304.702 266.074 304.66C266.074 304.617 266.056 304.577 266.024 304.547L264.245 302.909H266.245C266.291 302.909 266.335 302.892 266.368 302.863C266.4 302.833 266.418 302.792 266.418 302.75C266.416 302.71 266.396 302.672 266.364 302.644C266.331 302.616 266.289 302.601 266.245 302.601Z" fill="#6C63FF"/>
<path d="M273.498 302.601H271.498L273.277 300.966C273.309 300.936 273.327 300.896 273.327 300.853C273.327 300.811 273.309 300.771 273.277 300.741C273.261 300.726 273.242 300.714 273.221 300.706C273.2 300.698 273.177 300.694 273.154 300.694C273.131 300.694 273.109 300.698 273.088 300.706C273.067 300.714 273.048 300.726 273.032 300.741L271.253 302.378V300.534C271.253 300.492 271.235 300.451 271.203 300.421C271.171 300.392 271.127 300.375 271.08 300.375C271.035 300.376 270.991 300.393 270.959 300.422C270.927 300.452 270.909 300.492 270.908 300.534V302.378L269.133 300.731C269.117 300.716 269.098 300.704 269.077 300.696C269.056 300.688 269.033 300.684 269.01 300.684C268.987 300.684 268.964 300.688 268.943 300.696C268.922 300.704 268.903 300.716 268.887 300.731C268.855 300.761 268.838 300.802 268.838 300.844C268.838 300.886 268.855 300.927 268.887 300.957L270.666 302.591H268.663C268.618 302.592 268.574 302.609 268.542 302.639C268.51 302.668 268.492 302.708 268.491 302.75C268.491 302.792 268.509 302.833 268.541 302.863C268.573 302.892 268.617 302.909 268.663 302.909H270.666L268.887 304.547C268.855 304.577 268.838 304.617 268.838 304.66C268.838 304.702 268.855 304.742 268.887 304.772C268.92 304.801 268.964 304.817 269.01 304.817C269.056 304.817 269.1 304.801 269.133 304.772L270.908 303.135V304.976C270.908 305.018 270.926 305.059 270.958 305.088C270.99 305.118 271.034 305.135 271.08 305.135C271.127 305.135 271.171 305.118 271.203 305.088C271.235 305.059 271.253 305.018 271.253 304.976V303.135L273.032 304.772C273.065 304.801 273.109 304.817 273.154 304.817C273.2 304.817 273.244 304.801 273.277 304.772C273.309 304.742 273.327 304.702 273.327 304.66C273.327 304.617 273.309 304.577 273.277 304.547L271.498 302.909H273.498C273.544 302.909 273.588 302.892 273.62 302.863C273.652 302.833 273.67 302.792 273.67 302.75C273.668 302.71 273.648 302.672 273.616 302.644C273.584 302.616 273.542 302.601 273.498 302.601Z" fill="#6C63FF"/>
<path d="M280.751 302.601H278.751L280.531 300.966C280.562 300.936 280.58 300.896 280.58 300.853C280.58 300.811 280.562 300.771 280.531 300.741C280.514 300.726 280.494 300.714 280.473 300.706C280.452 300.698 280.43 300.694 280.407 300.694C280.384 300.694 280.362 300.698 280.341 300.706C280.32 300.714 280.301 300.726 280.285 300.741L278.507 302.378V300.534C278.507 300.492 278.488 300.451 278.456 300.421C278.424 300.392 278.379 300.375 278.333 300.375C278.288 300.376 278.244 300.393 278.212 300.422C278.18 300.452 278.162 300.492 278.161 300.534V302.378L276.386 300.731C276.37 300.716 276.351 300.704 276.33 300.696C276.308 300.688 276.285 300.684 276.263 300.684C276.24 300.684 276.217 300.688 276.196 300.696C276.175 300.704 276.156 300.716 276.14 300.731C276.108 300.761 276.091 300.802 276.091 300.844C276.091 300.886 276.108 300.927 276.14 300.957L277.919 302.591H275.916C275.871 302.592 275.827 302.609 275.795 302.639C275.762 302.668 275.744 302.708 275.743 302.75C275.743 302.792 275.761 302.833 275.793 302.863C275.827 302.892 275.87 302.909 275.916 302.909H277.919L276.14 304.547C276.108 304.577 276.091 304.617 276.091 304.66C276.091 304.702 276.108 304.742 276.14 304.772C276.173 304.801 276.217 304.817 276.263 304.817C276.308 304.817 276.353 304.801 276.386 304.772L278.161 303.135V304.976C278.161 305.018 278.179 305.059 278.211 305.088C278.244 305.118 278.287 305.135 278.333 305.135C278.379 305.135 278.424 305.118 278.456 305.088C278.488 305.059 278.507 305.018 278.507 304.976V303.135L280.285 304.772C280.318 304.801 280.362 304.817 280.407 304.817C280.453 304.817 280.496 304.801 280.531 304.772C280.562 304.742 280.58 304.702 280.58 304.66C280.58 304.617 280.562 304.577 280.531 304.547L278.751 302.909H280.751C280.797 302.909 280.841 302.892 280.873 302.863C280.905 302.833 280.924 302.792 280.924 302.75C280.921 302.71 280.902 302.672 280.87 302.644C280.837 302.616 280.795 302.601 280.751 302.601Z" fill="#6C63FF"/>
<path d="M288.004 302.601H286.004L287.783 300.966C287.814 300.936 287.832 300.896 287.832 300.853C287.832 300.811 287.814 300.771 287.783 300.741C287.767 300.726 287.748 300.714 287.727 300.706C287.706 300.698 287.683 300.694 287.66 300.694C287.637 300.694 287.615 300.698 287.594 300.706C287.573 300.714 287.554 300.726 287.538 300.741L285.759 302.378V300.534C285.759 300.492 285.74 300.451 285.708 300.421C285.676 300.392 285.632 300.375 285.586 300.375C285.541 300.376 285.497 300.393 285.465 300.422C285.433 300.452 285.415 300.492 285.414 300.534V302.378L283.638 300.731C283.622 300.716 283.603 300.704 283.582 300.696C283.561 300.688 283.538 300.684 283.516 300.684C283.493 300.684 283.47 300.688 283.449 300.696C283.428 300.704 283.409 300.716 283.393 300.731C283.361 300.761 283.344 300.802 283.344 300.844C283.344 300.886 283.361 300.927 283.393 300.957L285.172 302.591H283.169C283.123 302.592 283.079 302.609 283.047 302.639C283.015 302.668 282.997 302.708 282.996 302.75C282.996 302.792 283.014 302.833 283.046 302.863C283.079 302.892 283.122 302.909 283.169 302.909H285.172L283.393 304.547C283.361 304.577 283.344 304.617 283.344 304.66C283.344 304.702 283.361 304.742 283.393 304.772C283.426 304.801 283.47 304.817 283.516 304.817C283.561 304.817 283.605 304.801 283.638 304.772L285.414 303.135V304.976C285.414 305.018 285.432 305.059 285.464 305.088C285.497 305.118 285.541 305.135 285.586 305.135C285.632 305.135 285.676 305.118 285.708 305.088C285.74 305.059 285.759 305.018 285.759 304.976V303.135L287.538 304.772C287.571 304.801 287.615 304.817 287.66 304.817C287.706 304.817 287.749 304.801 287.783 304.772C287.814 304.742 287.832 304.702 287.832 304.66C287.832 304.617 287.814 304.577 287.783 304.547L286.004 302.909H288.004C288.05 302.909 288.094 302.892 288.126 302.863C288.158 302.833 288.177 302.792 288.177 302.75C288.174 302.71 288.155 302.672 288.123 302.644C288.091 302.616 288.048 302.601 288.004 302.601Z" fill="#6C63FF"/>
<path d="M295.257 302.601H293.257L295.036 300.966C295.067 300.936 295.085 300.896 295.085 300.853C295.085 300.811 295.067 300.771 295.036 300.741C295.02 300.726 295.001 300.714 294.98 300.706C294.959 300.698 294.936 300.694 294.913 300.694C294.891 300.694 294.868 300.698 294.847 300.706C294.826 300.714 294.807 300.726 294.791 300.741L293.012 302.378V300.534C293.012 300.492 292.993 300.451 292.961 300.421C292.929 300.392 292.885 300.375 292.839 300.375C292.794 300.376 292.751 300.393 292.718 300.422C292.686 300.452 292.668 300.492 292.667 300.534V302.378L290.891 300.731C290.875 300.716 290.856 300.704 290.835 300.696C290.814 300.688 290.791 300.684 290.769 300.684C290.746 300.684 290.723 300.688 290.702 300.696C290.681 300.704 290.662 300.716 290.646 300.731C290.615 300.761 290.597 300.802 290.597 300.844C290.597 300.886 290.615 300.927 290.646 300.957L292.425 302.591H290.421C290.376 302.592 290.332 302.609 290.3 302.639C290.268 302.668 290.25 302.708 290.249 302.75C290.249 302.792 290.267 302.833 290.299 302.863C290.332 302.892 290.376 302.909 290.421 302.909H292.425L290.646 304.547C290.615 304.577 290.597 304.617 290.597 304.66C290.597 304.702 290.615 304.742 290.646 304.772C290.68 304.801 290.723 304.817 290.769 304.817C290.814 304.817 290.858 304.801 290.891 304.772L292.667 303.135V304.976C292.667 305.018 292.685 305.059 292.717 305.088C292.75 305.118 292.794 305.135 292.839 305.135C292.885 305.135 292.929 305.118 292.961 305.088C292.993 305.059 293.012 305.018 293.012 304.976V303.135L294.791 304.772C294.824 304.801 294.868 304.817 294.913 304.817C294.959 304.817 295.002 304.801 295.036 304.772C295.067 304.742 295.085 304.702 295.085 304.66C295.085 304.617 295.067 304.577 295.036 304.547L293.257 302.909H295.257C295.303 302.909 295.347 302.892 295.379 302.863C295.412 302.833 295.43 302.792 295.43 302.75C295.427 302.71 295.408 302.672 295.376 302.644C295.344 302.616 295.301 302.601 295.257 302.601Z" fill="#6C63FF"/>
<path d="M302.509 302.601H300.51L302.289 300.966C302.321 300.936 302.338 300.896 302.338 300.853C302.338 300.811 302.321 300.771 302.289 300.741C302.273 300.726 302.254 300.714 302.233 300.706C302.212 300.698 302.189 300.694 302.166 300.694C302.144 300.694 302.121 300.698 302.1 300.706C302.079 300.714 302.06 300.726 302.043 300.741L300.265 302.378V300.534C300.265 300.492 300.247 300.451 300.214 300.421C300.182 300.392 300.138 300.375 300.092 300.375C300.047 300.376 300.004 300.393 299.971 300.422C299.938 300.452 299.92 300.492 299.919 300.534V302.378L298.144 300.731C298.128 300.716 298.109 300.704 298.088 300.696C298.067 300.688 298.045 300.684 298.022 300.684C297.999 300.684 297.976 300.688 297.955 300.696C297.934 300.704 297.915 300.716 297.899 300.731C297.867 300.761 297.85 300.802 297.85 300.844C297.85 300.886 297.867 300.927 297.899 300.957L299.678 302.591H297.674C297.629 302.592 297.586 302.609 297.553 302.639C297.521 302.668 297.503 302.708 297.502 302.75C297.502 302.792 297.52 302.833 297.552 302.863C297.585 302.892 297.629 302.909 297.674 302.909H299.678L297.899 304.547C297.867 304.577 297.85 304.617 297.85 304.66C297.85 304.702 297.867 304.742 297.899 304.772C297.933 304.801 297.976 304.817 298.022 304.817C298.067 304.817 298.111 304.801 298.144 304.772L299.919 303.135V304.976C299.919 305.018 299.937 305.059 299.97 305.088C300.003 305.118 300.047 305.135 300.092 305.135C300.138 305.135 300.182 305.118 300.214 305.088C300.247 305.059 300.265 305.018 300.265 304.976V303.135L302.043 304.772C302.077 304.801 302.121 304.817 302.166 304.817C302.212 304.817 302.256 304.801 302.289 304.772C302.321 304.742 302.338 304.702 302.338 304.66C302.338 304.617 302.321 304.577 302.289 304.547L300.51 302.909H302.509C302.555 302.909 302.6 302.892 302.632 302.863C302.665 302.833 302.683 302.792 302.683 302.75C302.68 302.71 302.661 302.672 302.629 302.644C302.597 302.616 302.553 302.601 302.509 302.601Z" fill="#6C63FF"/>
<path d="M309.762 302.601H307.763L309.542 300.966C309.574 300.936 309.591 300.896 309.591 300.853C309.591 300.811 309.574 300.771 309.542 300.741C309.526 300.726 309.507 300.714 309.486 300.706C309.465 300.698 309.442 300.694 309.419 300.694C309.397 300.694 309.373 300.698 309.352 300.706C309.331 300.714 309.312 300.726 309.296 300.741L307.518 302.378V300.534C307.518 300.492 307.5 300.451 307.467 300.421C307.435 300.392 307.391 300.375 307.345 300.375C307.3 300.376 307.256 300.393 307.224 300.422C307.191 300.452 307.173 300.492 307.172 300.534V302.378L305.397 300.731C305.381 300.716 305.362 300.704 305.341 300.696C305.32 300.688 305.298 300.684 305.275 300.684C305.252 300.684 305.23 300.688 305.209 300.696C305.187 300.704 305.167 300.716 305.151 300.731C305.12 300.761 305.102 300.802 305.102 300.844C305.102 300.886 305.12 300.927 305.151 300.957L306.931 302.591H304.927C304.882 302.592 304.839 302.609 304.806 302.639C304.774 302.668 304.756 302.708 304.755 302.75C304.755 302.792 304.773 302.833 304.806 302.863C304.838 302.892 304.882 302.909 304.927 302.909H306.931L305.151 304.547C305.12 304.577 305.102 304.617 305.102 304.66C305.102 304.702 305.12 304.742 305.151 304.772C305.185 304.801 305.229 304.817 305.275 304.817C305.32 304.817 305.364 304.801 305.397 304.772L307.172 303.135V304.976C307.172 305.018 307.19 305.059 307.223 305.088C307.255 305.118 307.3 305.135 307.345 305.135C307.391 305.135 307.435 305.118 307.467 305.088C307.5 305.059 307.518 305.018 307.518 304.976V303.135L309.296 304.772C309.329 304.801 309.373 304.817 309.419 304.817C309.465 304.817 309.509 304.801 309.542 304.772C309.574 304.742 309.591 304.702 309.591 304.66C309.591 304.617 309.574 304.577 309.542 304.547L307.763 302.909H309.762C309.808 302.909 309.852 302.892 309.884 302.863C309.917 302.833 309.936 302.792 309.936 302.75C309.933 302.71 309.913 302.672 309.881 302.644C309.849 302.616 309.806 302.601 309.762 302.601Z" fill="#6C63FF"/>
<path d="M317.016 302.601H315.016L316.795 300.966C316.827 300.936 316.845 300.896 316.845 300.853C316.845 300.811 316.827 300.771 316.795 300.741C316.779 300.726 316.759 300.714 316.738 300.706C316.717 300.698 316.694 300.694 316.672 300.694C316.649 300.694 316.626 300.698 316.605 300.706C316.584 300.714 316.565 300.726 316.549 300.741L314.771 302.378V300.534C314.771 300.492 314.753 300.451 314.72 300.421C314.688 300.392 314.643 300.375 314.598 300.375C314.552 300.376 314.509 300.393 314.477 300.422C314.444 300.452 314.426 300.492 314.425 300.534V302.378L312.65 300.731C312.634 300.716 312.615 300.704 312.594 300.696C312.573 300.688 312.55 300.684 312.527 300.684C312.504 300.684 312.482 300.688 312.461 300.696C312.44 300.704 312.421 300.716 312.405 300.731C312.373 300.761 312.355 300.802 312.355 300.844C312.355 300.886 312.373 300.927 312.405 300.957L314.184 302.591H312.181C312.135 302.592 312.092 302.609 312.06 302.639C312.026 302.668 312.008 302.708 312.007 302.75C312.007 302.792 312.025 302.833 312.059 302.863C312.091 302.892 312.135 302.909 312.181 302.909H314.184L312.405 304.547C312.373 304.577 312.355 304.617 312.355 304.66C312.355 304.702 312.373 304.742 312.405 304.772C312.438 304.801 312.482 304.817 312.527 304.817C312.573 304.817 312.617 304.801 312.65 304.772L314.425 303.135V304.976C314.425 305.018 314.443 305.059 314.476 305.088C314.508 305.118 314.552 305.135 314.598 305.135C314.643 305.135 314.688 305.118 314.72 305.088C314.753 305.059 314.771 305.018 314.771 304.976V303.135L316.549 304.772C316.582 304.801 316.626 304.817 316.672 304.817C316.717 304.817 316.762 304.801 316.795 304.772C316.827 304.742 316.845 304.702 316.845 304.66C316.845 304.617 316.827 304.577 316.795 304.547L315.016 302.909H317.016C317.061 302.909 317.105 302.892 317.137 302.863C317.17 302.833 317.188 302.792 317.188 302.75C317.185 302.71 317.166 302.672 317.134 302.644C317.102 302.616 317.06 302.601 317.016 302.601Z" fill="#6C63FF"/>
<path d="M324.269 302.601H322.269L324.047 300.966C324.079 300.936 324.098 300.896 324.098 300.853C324.098 300.811 324.079 300.771 324.047 300.741C324.031 300.726 324.012 300.714 323.991 300.706C323.97 300.698 323.947 300.694 323.925 300.694C323.902 300.694 323.879 300.698 323.858 300.706C323.837 300.714 323.818 300.726 323.802 300.741L322.024 302.378V300.534C322.024 300.492 322.006 300.451 321.973 300.421C321.94 300.392 321.896 300.375 321.851 300.375C321.805 300.376 321.762 300.393 321.73 300.422C321.698 300.452 321.679 300.492 321.678 300.534V302.378L319.902 300.731C319.886 300.716 319.867 300.704 319.846 300.696C319.825 300.688 319.803 300.684 319.78 300.684C319.757 300.684 319.735 300.688 319.714 300.696C319.693 300.704 319.674 300.716 319.658 300.731C319.626 300.761 319.608 300.802 319.608 300.844C319.608 300.886 319.626 300.927 319.658 300.957L321.436 302.591H319.434C319.388 302.592 319.344 302.609 319.312 302.639C319.28 302.668 319.261 302.708 319.26 302.75C319.26 302.792 319.278 302.833 319.311 302.863C319.343 302.892 319.388 302.909 319.434 302.909H321.436L319.658 304.547C319.626 304.577 319.608 304.617 319.608 304.66C319.608 304.702 319.626 304.742 319.658 304.772C319.691 304.801 319.735 304.817 319.78 304.817C319.825 304.817 319.869 304.801 319.902 304.772L321.678 303.135V304.976C321.678 305.018 321.696 305.059 321.729 305.088C321.761 305.118 321.805 305.135 321.851 305.135C321.896 305.135 321.94 305.118 321.973 305.088C322.006 305.059 322.024 305.018 322.024 304.976V303.135L323.802 304.772C323.835 304.801 323.879 304.817 323.925 304.817C323.97 304.817 324.014 304.801 324.047 304.772C324.079 304.742 324.098 304.702 324.098 304.66C324.098 304.617 324.079 304.577 324.047 304.547L322.269 302.909H324.269C324.314 302.909 324.358 302.892 324.391 302.863C324.423 302.833 324.441 302.792 324.441 302.75C324.438 302.71 324.419 302.672 324.387 302.644C324.355 302.616 324.313 302.601 324.269 302.601Z" fill="#6C63FF"/>
<path d="M379.871 341.283C379.861 340.898 379.809 340.516 379.715 340.141C379.404 339.066 378.703 337.766 377.549 337.441C376.358 337.106 375.208 336.658 374.117 336.106C373.909 332.697 374.759 329.209 373.833 325.905C373.488 324.697 372.918 323.539 372.766 322.303C372.576 320.764 373.032 319.123 372.365 317.705C371.84 316.585 370.687 315.797 369.447 315.383C368.208 314.97 366.871 314.859 365.554 314.747C363.897 314.623 358.53 314.038 356.658 315.402C356.528 315.495 356.413 315.602 356.313 315.72C356.271 315.773 356.234 315.828 356.202 315.886L356.185 315.911C356.148 315.977 356.115 316.047 356.091 316.118C356.065 316.196 356.045 316.276 356.032 316.356C356.032 316.382 356.032 316.407 356.032 316.433C356.032 316.458 356.032 316.544 356.032 316.601V316.687C356.032 316.744 356.032 316.802 356.032 316.862C356.032 316.922 356.032 316.906 356.032 316.929C356.056 317.215 356.101 317.501 356.101 317.784C356.105 317.925 356.091 318.066 356.06 318.204C355.945 318.579 355.751 318.929 355.487 319.234L355.425 319.317C355.387 319.368 355.349 319.415 355.314 319.466C355.28 319.517 355.252 319.555 355.225 319.6C355.197 319.644 355.17 319.673 355.145 319.714C355.112 319.767 355.082 319.821 355.055 319.876C355.055 319.908 355.017 319.937 355.003 319.969C354.96 320.055 354.925 320.144 354.9 320.236C354.819 320.512 354.812 320.802 354.879 321.082C354.972 321.438 355.133 321.777 355.352 322.083C355.438 322.214 355.531 322.341 355.629 322.468L355.87 322.77C355.825 323.065 355.801 323.362 355.798 323.66C355.798 324.656 356.043 325.639 356.516 326.534C356.989 327.43 357.676 328.215 358.526 328.831C358.663 330.173 358.648 331.526 358.481 332.866C358.45 333.146 358.412 333.429 358.371 333.708C358.33 333.988 358.299 334.173 358.257 334.405C357.752 334.471 357.237 334.436 356.748 334.3C356.522 334.207 356.292 334.125 356.056 334.055C355.051 333.823 354.026 334.745 353.032 334.465C353.032 334.51 353.004 334.551 352.987 334.592C352.779 334.474 352.54 334.409 352.295 334.405C351.705 334.379 351.225 333.985 350.796 333.613L349.481 332.471C349.395 332.402 349.319 332.323 349.253 332.236C349.182 332.112 349.129 331.981 349.094 331.845C348.873 331.187 348.338 330.662 347.82 330.163C347.722 330.049 347.591 329.962 347.443 329.912C347.386 329.904 347.328 329.904 347.271 329.912C347.236 329.867 347.197 329.825 347.156 329.785C347.067 329.69 346.971 329.601 346.87 329.517C346.242 328.983 346.18 328.525 345.634 327.928C345.158 327.357 344.726 326.757 344.342 326.131C344.297 325.797 344.235 325.454 344.159 325.107C343.984 324.314 343.731 323.537 343.402 322.786L342.712 321.377L342.632 321.45C342.131 320.764 341.596 320.388 341.116 320.477C340.311 320.63 339.914 322.067 340.042 323.946L340.318 325.854C340.318 325.902 340.342 325.95 340.356 325.997C340.306 326.224 340.281 326.454 340.28 326.684C340.28 326.951 340.55 327.149 340.691 327.387C340.917 327.71 341.038 328.087 341.037 328.471C341.019 328.608 340.975 328.738 340.968 328.872C340.987 329.171 341.099 329.458 341.292 329.699L343.018 332.37L343.364 332.929L343.385 332.955C343.494 333.15 343.653 333.318 343.848 333.444C343.915 334.113 344.109 334.766 344.417 335.375C344.476 335.495 344.542 335.61 344.612 335.724C345.075 336.427 345.623 337.081 346.242 337.674L347.063 338.523C347.875 339.356 348.686 340.192 349.567 340.961C349.883 341.27 350.263 341.516 350.686 341.683C350.894 341.759 351.119 341.784 351.339 341.754C351.56 341.725 351.768 341.642 351.944 341.515C351.944 341.909 351.944 342.303 351.944 342.698C352.072 342.705 352.195 342.743 352.302 342.81C352.408 342.876 352.495 342.967 352.55 343.073C352.606 343.18 352.629 343.298 352.619 343.416C352.608 343.534 352.563 343.647 352.49 343.744C351.764 345.458 351.032 347.187 349.934 348.723C350.708 349.146 351.428 349.651 352.075 350.227C352.495 350.656 352.868 351.121 353.19 351.617C353.221 351.852 353.245 352.084 353.259 352.316C353.514 356.107 351.922 359.868 350.496 363.481C350.085 364.504 349.636 365.576 349.671 366.641C349.4 366.795 349.141 366.966 348.897 367.153C349.18 367.834 349.07 368.441 349.039 369.169C349.029 369.606 348.932 370.037 348.752 370.441C348.602 370.721 348.436 370.994 348.254 371.258C347.36 372.711 347.163 374.438 346.984 376.098C346.877 377.1 347.298 378.324 346.804 379.22C345.951 380.759 345.195 382.4 345.077 384.111C345.073 384.496 345.02 384.879 344.918 385.252C344.811 385.57 344.622 385.841 344.524 386.152C344.425 386.57 344.402 387 344.455 387.424C344.521 388.948 344.275 390.47 343.73 391.911C343.299 393.046 342.822 394.261 343.161 395.428C342.327 396.234 341.812 397.274 341.7 398.382C341.691 398.665 341.654 398.947 341.589 399.224C341.484 399.508 341.344 399.78 341.175 400.035C340.48 401.201 340.154 402.523 340.235 403.851C339.199 405.145 338.681 406.741 338.374 408.328C338.066 409.915 337.932 411.53 337.538 413.098C337.013 415.171 336.063 417.266 335.877 419.39C334.758 420.049 334.274 421.324 334.059 422.529C333.846 423.734 333.811 425 333.262 426.112C332.978 426.691 332.572 427.209 332.302 427.801C332.113 428.272 331.974 428.758 331.887 429.254C331.722 430.03 331.577 430.895 331.78 431.639C331.488 431.925 331.146 432.164 330.768 432.348C330.823 432.151 330.868 431.954 330.906 431.753C330.016 432.497 328.399 432.237 327.687 433.13C327.474 433.418 327.391 433.772 327.455 434.115C327.52 434.459 327.727 434.766 328.033 434.971C328.255 435.096 328.497 435.191 328.748 435.254C330.475 435.763 332.25 436.275 334.025 436.005C334.235 435.984 334.438 435.924 334.623 435.83C334.854 435.673 335.043 435.471 335.179 435.238C335.445 434.85 335.711 434.463 335.973 434.075C336.609 434.249 337.257 434.389 337.911 434.491C337.977 435 338.025 435.509 338.049 436.017C338.395 436.081 338.858 436.1 339.02 435.804C339.069 435.693 339.089 435.572 339.078 435.451C339.078 435.226 339.113 434.927 339.133 434.622H339.202C340.256 434.661 341.304 434.465 342.259 434.052C341.889 431.235 343.109 428.481 344.166 425.817C345.281 423.012 346.238 420.157 347.202 417.301C347.892 415.292 348.655 413.346 349.333 411.333C350.184 408.789 351.04 406.245 351.898 403.701C352.271 402.582 352.648 401.476 353.077 400.363C353.977 398.111 355.047 395.919 356.278 393.803C356.623 393.202 356.969 392.607 357.252 391.984C357.597 391.224 357.843 390.429 358.118 389.644C358.72 388.032 359.446 386.462 360.287 384.944C360.311 384.903 360.329 384.864 360.354 384.826C360.633 385.879 360.913 386.947 361.099 388.006C361.351 389.304 361.371 390.632 361.158 391.936C360.992 392.823 360.678 393.701 360.716 394.601C360.767 395.844 361.49 396.973 361.845 398.172C362.075 399.069 362.204 399.985 362.232 400.906C362.329 402.337 363.172 403.943 362.578 405.269C360.729 409.47 361.624 414.214 360.571 418.624C360.029 420.888 358.368 423.015 358.499 425.33C358.591 426.973 358.747 428.612 358.968 430.246C359.022 430.762 359.167 431.266 359.4 431.737C359.538 431.986 359.696 432.224 359.874 432.45C359.721 432.504 359.593 432.647 359.483 432.949C359.199 433.744 359.483 434.73 360.249 435.175C360.562 435.329 360.899 435.436 361.248 435.493C361.717 435.616 362.203 435.678 362.691 435.677C362.843 435.67 362.995 435.653 363.144 435.626C363.678 435.833 364.223 436.013 364.778 436.167C364.778 436.297 364.805 436.428 364.822 436.558C364.823 436.626 364.84 436.693 364.871 436.755C364.902 436.817 364.946 436.872 365.002 436.917C365.089 436.954 365.184 436.97 365.278 436.962H367.154C367.154 436.819 367.154 436.672 367.154 436.529C367.368 436.55 367.585 436.529 367.791 436.468C367.996 436.406 368.184 436.306 368.346 436.173C368.511 435.979 368.629 435.753 368.69 435.512C369.201 433.916 369.709 432.318 370.213 430.72C370.818 428.953 371.07 427.1 370.957 425.251C370.289 419.39 371.754 413.511 371.277 407.635C370.991 404.103 371.188 400.552 371.864 397.065C372.02 396.277 372.21 395.475 372.279 394.69C372.432 393.208 372.244 391.711 372.358 390.238C372.397 389.723 372.473 389.211 372.542 388.699C373.015 385.522 373.263 382.319 373.284 379.112C373.273 378.05 373.202 376.988 373.07 375.933C373.43 375.848 373.757 375.672 374.013 375.424C374.32 375.055 374.241 374.537 374.237 374.066C374.237 372.94 374.752 371.878 375.167 370.816C375.699 369.351 376.135 367.858 376.472 366.346C376.829 365.126 377.023 363.872 377.052 362.609C377.052 362.482 377.045 362.355 377.031 362.228C377.162 362.145 377.27 362.036 377.349 361.91C377.439 361.723 377.495 361.525 377.515 361.321C377.639 360.511 377.767 359.697 377.891 358.883C377.983 358.3 378.074 357.718 378.164 357.137L379.263 350.081C379.356 349.467 379.453 348.857 379.546 348.246L379.833 346.421C379.864 346.205 379.898 345.989 379.922 345.785C380.765 344.488 379.96 342.758 379.871 341.283ZM370.707 367.7C370.301 366.81 369.92 365.897 370.017 364.937H369.979C370.07 364.641 370.054 364.327 369.934 364.04C369.827 363.808 369.64 363.611 369.526 363.379C369.404 363.095 369.341 362.793 369.34 362.488C369.255 360.555 369.42 358.618 369.834 356.72C369.879 356.498 369.927 356.272 369.972 356.049C370.117 355.972 370.249 355.877 370.366 355.766C370.547 355.576 370.697 355.361 370.811 355.13C371.201 354.409 371.557 353.674 371.885 352.927C371.993 352.685 372.148 352.405 372.414 352.345C372.358 354.205 372.566 356.103 371.744 357.782C371.588 358.053 371.472 358.342 371.399 358.641C371.322 359.115 371.537 359.595 371.461 360.065C371.423 360.31 371.308 360.536 371.263 360.778C371.229 360.896 371.23 361.021 371.265 361.14C371.3 361.258 371.37 361.366 371.464 361.452C371.51 361.481 371.56 361.505 371.613 361.522C371.592 361.649 371.575 361.779 371.561 361.903C371.533 362.164 371.519 362.409 371.502 362.562C371.423 363.339 371.392 364.121 371.409 364.902C371.409 365.745 371.444 366.587 371.43 367.446C371.443 367.692 371.398 367.938 371.298 368.168C371.23 368.286 371.141 368.393 371.036 368.486C370.936 368.199 370.826 367.948 370.707 367.7Z" fill="url(#paint1_linear)"/>
<path d="M343.444 330.805C344.498 330.606 344.857 328.218 344.246 325.47C343.634 322.723 342.284 320.657 341.23 320.856C340.176 321.054 339.817 323.443 340.43 326.19C341.041 328.938 342.39 331.004 343.444 330.805Z" fill="#FBBEBE"/>
<path d="M359.538 433.009C359.255 433.798 359.538 434.784 360.304 435.213C360.616 435.365 360.95 435.473 361.296 435.531C361.765 435.653 362.249 435.714 362.736 435.712C363.334 435.687 363.907 435.471 364.504 435.394C364.574 435.378 364.647 435.387 364.709 435.42C364.739 435.449 364.761 435.484 364.774 435.523C364.787 435.562 364.791 435.602 364.785 435.642C364.791 435.955 364.816 436.267 364.86 436.577C364.861 436.645 364.877 436.713 364.908 436.775C364.939 436.837 364.984 436.892 365.04 436.936C365.127 436.973 365.222 436.989 365.316 436.981H367.189C367.231 435.467 367.05 433.954 366.653 432.485C366.627 432.372 366.58 432.265 366.515 432.167C366.356 432.007 366.148 431.896 365.917 431.849C365.459 431.673 364.965 431.594 364.47 431.617C363.866 431.69 363.361 432.049 362.847 432.348C362.332 432.647 361.631 432.911 361.006 432.758C360.381 432.606 359.86 432.125 359.538 433.009Z" fill="#3F3D56"/>
<path d="M332.054 431.613C331.527 432.132 330.881 432.536 330.164 432.796L329.846 432.936C329.802 432.952 329.765 432.979 329.739 433.016C329.733 433.04 329.733 433.066 329.739 433.091C329.745 433.116 329.757 433.139 329.773 433.159C330.038 433.535 330.429 433.822 330.886 433.975C331.344 434.128 331.843 434.14 332.309 434.008C332.515 433.96 332.705 433.869 332.865 433.741C333.128 433.453 333.279 433.093 333.293 432.717C333.397 432.329 333.379 431.922 333.241 431.544C332.761 430.548 332.585 431 332.054 431.613Z" fill="#FBBEBE"/>
<path d="M339.23 435.531C339.24 435.651 339.22 435.772 339.171 435.884C339.009 436.176 338.557 436.161 338.204 436.097C338.151 435.018 338.009 433.944 337.78 432.885C337.109 432.857 336.626 433.442 336.267 433.967L335.341 435.318C335.208 435.551 335.018 435.753 334.789 435.909C334.603 436.003 334.401 436.062 334.191 436.084C332.422 436.354 330.637 435.843 328.931 435.334C328.68 435.272 328.439 435.178 328.216 435.054C327.912 434.848 327.705 434.542 327.641 434.199C327.577 433.856 327.659 433.504 327.871 433.216C328.586 432.326 330.192 432.58 331.083 431.842C330.99 432.361 330.837 432.87 330.627 433.359C331.818 433.194 332.62 432.189 333.58 431.518C333.821 431.33 334.112 431.203 334.422 431.149C334.656 431.131 334.89 431.154 335.113 431.216C336.221 431.473 337.257 431.942 338.152 432.593C338.515 432.857 339.082 433.229 339.24 433.636C339.41 434.122 339.23 435.013 339.23 435.531Z" fill="#3F3D56"/>
<path d="M362.989 330.618C366.929 330.618 370.124 327.676 370.124 324.048C370.124 320.42 366.929 317.479 362.989 317.479C359.048 317.479 355.853 320.42 355.853 324.048C355.853 327.676 359.048 330.618 362.989 330.618Z" fill="#FBBEBE"/>
<path d="M377.045 362.835C377.016 364.091 376.823 365.339 376.468 366.552C376.131 368.059 375.695 369.545 375.163 371.004C374.752 372.063 374.237 373.125 374.241 374.247C374.241 374.715 374.324 375.233 374.013 375.602C373.736 375.861 373.387 376.044 373.005 376.133C372.813 376.18 372.637 376.267 372.49 376.388C372.342 376.509 372.227 376.66 372.155 376.829C371.83 376.383 371.588 375.891 371.437 375.373C370.817 373.626 370.241 371.87 369.709 370.104C369.661 370.002 369.64 369.891 369.648 369.781C369.656 369.67 369.694 369.562 369.757 369.468C369.846 369.398 369.948 369.345 370.058 369.312C370.413 369.179 370.736 368.987 371.015 368.746C371.146 368.639 371.253 368.511 371.332 368.368C371.434 368.14 371.479 367.895 371.468 367.649C371.468 366.807 371.468 365.967 371.444 365.124C371.429 364.347 371.461 363.568 371.54 362.794C371.54 362.641 371.571 362.396 371.599 362.136C371.651 361.636 371.754 361.058 372.048 360.864C372.487 360.593 373.799 360.956 374.296 361.019C375.153 361.128 376.023 361.255 376.859 361.404C376.98 361.873 377.043 362.353 377.045 362.835Z" fill="#3F3D56"/>
<path d="M348.235 331.403C347.958 331.912 347.295 332.157 346.784 332.478L345.032 333.584C344.915 333.681 344.778 333.756 344.63 333.803C344.48 333.85 344.323 333.868 344.166 333.858C344.023 333.809 343.892 333.735 343.782 333.64C343.671 333.544 343.582 333.429 343.519 333.301C343.52 333.293 343.52 333.284 343.519 333.276L343.157 332.716L341.431 330.052C341.238 329.813 341.127 329.528 341.109 329.231C341.109 329.095 341.161 328.967 341.175 328.831C341.179 328.447 341.059 328.07 340.829 327.75C340.691 327.511 340.415 327.314 340.422 327.047C340.409 326.696 340.475 326.346 340.615 326.02C340.796 325.718 341.056 325.462 341.371 325.276C341.534 325.168 341.7 325.066 341.872 324.958C341.964 324.9 342.066 324.857 342.173 324.831C342.459 324.776 342.743 324.996 343.033 325.005C344.28 325.775 344.76 327.231 345.741 328.281C346.293 328.878 346.348 329.336 346.973 329.87C347.073 329.953 347.17 330.042 347.264 330.134C347.387 330.258 347.492 330.398 347.574 330.548C347.688 330.821 348.376 331.142 348.235 331.403Z" fill="#3F3D56"/>
<path d="M360.481 330.621C360.996 331.622 361.397 332.723 361.248 333.823C361.217 334.121 361.115 334.409 360.948 334.665C360.45 335.368 359.407 335.495 358.499 335.537C358.308 335.522 358.114 335.542 357.932 335.597C357.75 335.652 357.58 335.739 357.435 335.855C357.314 336.017 357.255 336.212 357.266 336.409C357.278 336.606 357.361 336.793 357.5 336.942C357.793 337.229 358.155 337.447 358.557 337.578C359.994 338.16 361.545 338.64 363.106 338.507C363.831 338.443 364.536 338.249 365.258 338.151C366.044 338.072 366.836 338.032 367.627 338.03C368.566 337.998 369.502 337.912 370.439 337.826L372.918 337.6C373.054 337.602 373.185 337.558 373.287 337.476C373.471 337.279 373.236 336.99 373.008 336.84C371.692 335.944 370.017 335.327 369.268 333.979C368.922 333.343 368.815 332.586 368.559 331.899C368.304 331.212 367.896 330.592 367.738 329.893C367.652 329.279 367.614 328.661 367.623 328.042C367.632 327.418 367.386 326.814 366.933 326.35C366.439 325.927 365.724 325.819 365.054 325.794C363.403 325.727 361.645 326.09 360.474 327.161C360.16 327.451 359.891 327.797 359.566 328.058C359.241 328.319 358.8 328.395 359.013 328.738C359.227 329.082 359.649 329.295 359.877 329.597C360.107 329.923 360.309 330.265 360.481 330.621Z" fill="#FBBEBE"/>
<path d="M374.549 339.871C374.113 342.319 373.404 344.72 372.435 347.035C371.947 348.08 371.532 349.153 371.191 350.246C370.926 351.232 370.977 352.288 370.732 353.277C370.428 354.507 370.124 355.741 369.879 356.981C369.468 358.875 369.303 360.807 369.389 362.736C369.389 363.04 369.453 363.341 369.575 363.624C369.689 363.853 369.872 364.05 369.979 364.285C370.059 364.492 370.092 364.711 370.075 364.93C370.059 365.149 369.993 365.363 369.883 365.557C369.705 365.921 369.465 366.256 369.17 366.549C365.952 367.433 362.509 367.144 359.155 367.331C356.063 367.503 352.938 368.088 349.892 367.602C349.547 366.33 350.123 364.997 350.617 363.757C352.051 360.155 353.636 356.402 353.38 352.628C353.353 352.188 353.299 351.749 353.218 351.315C352.717 348.641 353.263 345.871 354.137 343.279C354.679 341.664 354.655 339.944 354.53 338.262C354.468 337.716 354.46 337.165 354.506 336.618C354.556 336.059 354.782 335.525 355.156 335.082C355.156 335.06 355.187 335.038 355.204 335.015C355.221 334.993 355.356 334.996 355.463 335.015C355.49 335.026 355.519 335.031 355.549 335.031C355.578 335.031 355.608 335.026 355.636 335.015L355.674 334.993C355.688 334.983 355.706 334.978 355.724 334.978C355.742 334.978 355.759 334.983 355.774 334.993C355.853 335.038 355.898 335.19 356.07 335.219C356.326 335.254 356.583 335.277 356.841 335.286C357.151 335.294 357.459 335.335 357.76 335.406H357.801C358.251 335.476 358.711 335.44 359.141 335.301C359.427 335.236 359.703 335.137 359.963 335.009C360.039 334.933 360.516 334.863 360.612 334.809C360.927 334.634 360.857 333.813 360.924 333.476C360.96 333.138 361.047 332.806 361.182 332.491C361.339 332.257 361.557 332.063 361.814 331.925C362.072 331.787 362.362 331.709 362.661 331.699C363.255 331.686 363.849 331.735 364.432 331.845C365.721 332.014 367.04 331.985 368.304 332.258C368.94 332.395 369.633 332.602 370.217 332.335C370.377 332.37 370.401 332.497 370.401 332.653C370.386 332.801 370.353 332.947 370.303 333.088C370.083 333.966 370.832 334.774 371.523 335.41C371.814 335.709 372.159 335.962 372.542 336.157C372.887 336.303 373.232 336.363 373.578 336.522C373.857 336.66 374.095 336.86 374.268 337.104C374.467 337.385 374.602 337.7 374.662 338.03C374.736 338.645 374.698 339.267 374.549 339.871Z" fill="#6C63FF"/>
<path opacity="0.1" d="M374.549 339.871C374.113 342.319 373.404 344.72 372.435 347.035C371.947 348.08 371.532 349.153 371.191 350.246C370.926 351.232 370.977 352.288 370.732 353.277C370.428 354.507 370.124 355.741 369.879 356.981C369.807 357.019 369.73 357.054 369.654 357.086C369.224 357.275 368.77 357.41 368.301 357.487C367.458 357.581 366.605 357.555 365.772 357.41L360.843 356.803C358.875 356.558 356.779 356.263 355.318 355.035C354.506 354.361 353.974 353.471 353.39 352.612C353.364 352.172 353.309 351.733 353.228 351.299C352.727 348.625 353.273 345.855 354.147 343.264C354.689 341.648 354.665 339.928 354.54 338.246C354.479 337.7 354.471 337.149 354.516 336.602C354.566 336.043 354.792 335.509 355.166 335.066C355.267 335.039 355.369 335.018 355.473 335.003C355.542 334.99 355.613 334.981 355.684 334.977H355.784C355.9 334.977 356.016 334.99 356.129 335.015C356.365 335.084 356.595 335.166 356.82 335.26H356.862C357.157 335.35 357.469 335.391 357.781 335.381C358.236 335.381 358.705 335.314 359.162 335.286C359.725 335.205 360.301 335.3 360.798 335.556C361.12 335.793 361.425 336.049 361.711 336.322C362.056 336.572 362.445 336.767 362.86 336.898C365.834 337.942 369.132 337.879 372.055 336.72C372.335 336.573 372.654 336.498 372.977 336.503C373.215 336.546 373.441 336.635 373.64 336.764C373.847 336.875 374.051 336.984 374.262 337.082C374.46 337.362 374.595 337.677 374.656 338.007C374.735 338.63 374.698 339.26 374.549 339.871Z" fill="black"/>
<path d="M377.556 337.766C376.182 337.379 374.86 336.845 373.619 336.176C373.42 336.048 373.194 335.959 372.957 335.915C372.632 335.912 372.313 335.986 372.031 336.131C369.109 337.29 365.812 337.354 362.84 336.309C362.425 336.177 362.037 335.983 361.69 335.734C361.403 335.462 361.098 335.206 360.778 334.968C359.642 334.29 358.07 335.085 356.8 334.65C356.574 334.557 356.343 334.475 356.108 334.405C355.104 334.173 354.082 335.095 353.094 334.815C352.726 335.735 352.454 336.684 352.282 337.651C352.142 338.762 352.067 339.878 352.058 340.996C352.058 341.667 352.023 342.338 352.058 343.009C352.179 343.028 352.295 343.069 352.398 343.131C352.503 343.193 352.591 343.274 352.658 343.369C352.704 343.479 352.722 343.598 352.713 343.716C352.703 343.834 352.666 343.949 352.603 344.052C351.881 345.76 351.149 347.486 350.054 349.016C350.825 349.439 351.542 349.943 352.189 350.517C353.397 351.693 353.991 353.343 355.297 354.431C356.769 355.655 358.865 355.954 360.823 356.196L365.752 356.803C366.586 356.947 367.44 356.974 368.284 356.883C368.751 356.804 369.205 356.668 369.633 356.479C369.914 356.371 370.169 356.216 370.387 356.021C370.569 355.83 370.719 355.616 370.833 355.385C371.222 354.666 371.578 353.932 371.907 353.188C372.02 352.924 372.193 352.615 372.504 352.593C374.334 351.073 376.061 349.515 377.892 347.995C378.627 347.434 379.287 346.793 379.857 346.087C380.765 344.85 379.94 343.098 379.857 341.604C379.847 341.221 379.795 340.841 379.701 340.469C379.405 339.384 378.707 338.087 377.556 337.766Z" fill="#6C63FF"/>
<path opacity="0.1" d="M348.234 331.403C347.958 331.912 347.295 332.157 346.784 332.478L345.032 333.584C344.915 333.681 344.778 333.756 344.63 333.803C344.48 333.85 344.323 333.868 344.166 333.858C344.023 333.809 343.892 333.735 343.782 333.64C343.671 333.544 343.582 333.429 343.519 333.301C343.519 333.228 343.519 333.149 343.519 333.072C343.506 332.815 343.543 332.558 343.631 332.312C343.802 331.953 344.068 331.638 344.404 331.397C345.054 330.83 345.828 330.396 346.673 330.125C346.805 330.078 346.948 330.064 347.087 330.087C347.141 330.1 347.192 330.12 347.24 330.147C347.363 330.271 347.468 330.41 347.55 330.56C347.688 330.821 348.376 331.142 348.234 331.403Z" fill="black"/>
<path d="M352.358 334.755C351.771 334.729 351.29 334.338 350.862 333.966L349.553 332.847C349.466 332.778 349.389 332.699 349.326 332.611C349.254 332.488 349.201 332.356 349.166 332.22C348.889 331.578 348.454 331.003 347.896 330.541C347.799 330.427 347.667 330.341 347.519 330.293C347.379 330.269 347.234 330.283 347.101 330.331C346.256 330.603 345.482 331.036 344.832 331.603C344.496 331.845 344.23 332.16 344.059 332.519C343.971 332.764 343.934 333.022 343.948 333.279C343.956 334.119 344.161 334.948 344.548 335.708C344.608 335.826 344.674 335.944 344.742 336.058C345.203 336.759 345.748 337.411 346.366 338.001L347.187 338.847C347.996 339.68 348.804 340.513 349.681 341.279C349.996 341.588 350.377 341.833 350.8 341.998C351.013 342.078 351.245 342.102 351.472 342.069C351.698 342.035 351.91 341.945 352.085 341.807C352.25 341.631 352.375 341.425 352.452 341.203C352.984 339.931 353.487 338.608 353.519 337.238C353.526 336.689 353.501 336.14 353.442 335.594C353.39 335.015 352.945 334.79 352.358 334.755Z" fill="#6C63FF"/>
<path d="M373.288 379.271C373.268 382.47 373.021 385.664 372.549 388.833C372.48 389.345 372.403 389.857 372.365 390.369C372.251 391.854 372.439 393.345 372.286 394.82C372.207 395.618 372.027 396.41 371.875 397.189C371.2 400.666 371.003 404.208 371.288 407.73C371.764 413.591 370.303 419.454 370.967 425.298C371.047 426.435 370.979 427.576 370.763 428.698C370.639 429.393 370.461 430.08 370.227 430.752C369.723 432.344 369.216 433.934 368.708 435.521C368.648 435.763 368.53 435.989 368.363 436.183C368.186 436.323 367.98 436.427 367.757 436.488C367.533 436.549 367.298 436.565 367.067 436.536C365.075 436.479 363.199 435.687 361.389 434.914C361.181 434.839 360.989 434.731 360.819 434.596C360.443 434.237 360.474 433.671 360.308 433.197C360.143 432.723 359.693 432.278 359.438 431.792C359.228 431.331 359.101 430.843 359.062 430.345C358.832 428.717 358.674 427.082 358.592 425.442C358.461 423.133 360.118 421.009 360.664 418.764C361.7 414.351 360.823 409.619 362.664 405.431C363.244 404.108 362.401 402.506 362.318 401.081C362.288 400.162 362.159 399.248 361.932 398.353C361.586 397.157 360.858 396.032 360.805 394.792C360.767 393.895 361.082 393.021 361.244 392.137C361.46 390.836 361.44 389.511 361.186 388.216C361.003 387.148 360.723 386.079 360.443 385.036L360.381 385.154C359.54 386.668 358.816 388.235 358.215 389.844C357.939 390.623 357.697 391.418 357.352 392.175C357.069 392.811 356.72 393.393 356.378 393.99C355.152 396.099 354.085 398.282 353.183 400.525C352.755 401.625 352.378 402.751 352.006 403.854L349.447 411.486C348.755 413.492 347.999 415.432 347.323 417.435C346.366 420.297 345.409 423.133 344.297 425.931C343.261 428.586 342.028 431.337 342.397 434.141C341.445 434.553 340.399 434.749 339.348 434.711C337.567 434.566 335.821 434.175 334.167 433.553C333.507 433.327 332.823 433.073 332.378 432.574C331.611 431.712 331.801 430.45 332.033 429.353C332.12 428.858 332.258 428.373 332.447 427.903C332.71 427.318 333.138 426.799 333.407 426.221C333.949 425.111 333.984 423.855 334.198 422.65C334.412 421.445 334.889 420.173 336.008 419.518C336.198 417.4 337.144 415.311 337.665 413.241C338.059 411.673 338.19 410.061 338.501 408.471C338.813 406.881 339.313 405.291 340.356 404.004C340.273 402.676 340.599 401.353 341.295 400.188C341.464 399.932 341.602 399.66 341.706 399.377C341.771 399.101 341.808 398.82 341.817 398.538C341.931 397.433 342.444 396.395 343.274 395.59C342.929 394.429 343.409 393.218 343.841 392.092C344.385 390.656 344.631 389.138 344.566 387.618C344.512 387.194 344.534 386.764 344.632 386.346C344.729 386.028 344.918 385.758 345.029 385.453C345.128 385.079 345.18 384.696 345.185 384.311C345.319 382.591 346.075 380.969 346.911 379.433C347.409 378.537 346.987 377.319 347.091 376.32C347.271 374.661 347.467 372.944 348.362 371.497C348.528 371.223 348.707 370.963 348.856 370.68C349.036 370.275 349.133 369.844 349.142 369.408C349.173 368.679 349.284 368.075 349.001 367.398C350.848 365.983 353.37 365.586 355.774 365.49C358.177 365.395 360.609 365.595 362.961 365.124C363.652 364.981 364.342 364.784 365.072 364.689C366.726 364.466 368.404 364.813 370.038 365.156C369.924 366.11 370.304 367.026 370.728 367.913C372.387 371.507 373.257 375.367 373.288 379.271Z" fill="#33313F"/>
<path opacity="0.1" d="M365.154 379.999L361.186 388.216C361.003 387.148 360.723 386.079 360.443 385.036L360.381 385.154V384.982L362.543 380.604L365.154 379.999Z" fill="black"/>
<path opacity="0.1" d="M377.045 362.835C376.817 362.993 376.543 363.087 376.258 363.105C375.82 363.12 375.383 363.065 374.966 362.943L371.857 362.228C371.76 362.206 371.665 362.175 371.575 362.135C371.626 361.636 371.73 361.058 372.024 360.864C372.463 360.593 373.775 360.956 374.272 361.019C375.129 361.128 375.999 361.255 376.835 361.404C376.964 361.872 377.035 362.352 377.045 362.835Z" fill="black"/>
<path d="M379.673 343.915C379.739 344.179 379.833 344.44 379.888 344.707C379.981 345.363 379.956 346.027 379.816 346.675L379.532 348.494L379.248 350.323L378.154 357.36L377.885 359.102L377.505 361.535C377.487 361.737 377.431 361.935 377.339 362.12C377.226 362.292 377.067 362.437 376.879 362.539C376.691 362.642 376.477 362.7 376.258 362.708C375.821 362.721 375.384 362.666 374.966 362.546L371.857 361.827C371.721 361.805 371.592 361.756 371.478 361.684C371.383 361.599 371.314 361.491 371.279 361.373C371.244 361.256 371.243 361.131 371.277 361.013C371.322 360.771 371.437 360.546 371.475 360.304C371.551 359.833 371.336 359.35 371.413 358.883C371.487 358.585 371.603 358.297 371.757 358.027C372.794 355.919 372.193 353.458 372.545 351.169C372.862 349.367 373.689 347.673 374.942 346.259C375.716 345.366 376.603 344.563 377.587 343.868C377.974 343.591 378.589 343.022 379.076 342.914C379.701 342.793 379.57 343.515 379.673 343.915Z" fill="#6C63FF"/>
<path d="M356.151 316.525C355.922 317.193 356.278 317.927 356.115 318.608C355.939 319.358 355.173 319.88 354.955 320.633C354.61 321.781 355.667 322.827 356.44 323.781C359.307 327.323 358.931 332.227 357.95 336.548C357.16 340.015 356.068 343.418 354.686 346.723C354.254 347.75 353.777 348.793 352.927 349.563C354.516 349.143 356.206 348.72 357.798 349.127C359.815 349.642 361.555 351.445 363.6 351.035C364.829 350.784 365.693 349.779 366.798 349.222C368.871 348.195 371.367 348.841 373.678 349.172C374.176 349.28 374.697 349.255 375.181 349.102C375.549 348.919 375.863 348.653 376.093 348.329C377.123 347.111 377.741 345.64 377.867 344.1C377.922 343.333 377.799 342.564 377.507 341.845C377.215 341.125 376.76 340.47 376.172 339.925C375.681 339.499 375.094 339.155 374.718 338.653C374.351 338.066 374.155 337.403 374.148 336.726C373.875 333.228 374.8 329.657 373.847 326.274C373.502 325.069 372.939 323.915 372.787 322.681C372.597 321.145 373.05 319.501 372.386 318.096C371.864 316.98 370.714 316.188 369.475 315.781C368.235 315.374 366.909 315.259 365.592 315.145C363.7 314.999 356.941 314.251 356.151 316.525Z" fill="#33313F"/>
<g opacity="0.1">
<path opacity="0.1" d="M357.95 336.548C357.164 340.001 356.078 343.389 354.703 346.682C354.941 346.246 355.142 345.788 355.332 345.334C356.717 342.029 357.808 338.626 358.595 335.158C359.58 330.834 359.956 325.937 357.089 322.392C356.399 321.546 355.511 320.63 355.542 319.638C355.287 319.938 355.088 320.276 354.955 320.636C354.61 321.784 355.667 322.83 356.44 323.784C359.307 327.323 358.931 332.227 357.95 336.548Z" fill="black"/>
<path opacity="0.1" d="M356.157 318.287C356.434 317.97 356.64 317.605 356.765 317.215C356.818 316.743 356.805 316.266 356.724 315.797C356.457 315.981 356.258 316.235 356.151 316.525C355.946 317.088 356.182 317.698 356.157 318.287Z" fill="black"/>
<path opacity="0.1" d="M376.742 346.93C376.512 347.253 376.199 347.518 375.83 347.699C375.347 347.856 374.825 347.881 374.327 347.769C372.017 347.451 369.492 346.796 367.447 347.823C366.339 348.377 365.478 349.381 364.246 349.636C362.204 350.056 360.464 348.253 358.447 347.728C357.017 347.362 355.511 347.664 354.071 348.046C353.785 348.608 353.398 349.122 352.927 349.566C354.516 349.146 356.206 348.723 357.798 349.13C359.815 349.645 361.555 351.448 363.6 351.038C364.829 350.787 365.693 349.782 366.798 349.226C368.871 348.199 371.367 348.844 373.678 349.175C374.176 349.283 374.697 349.259 375.181 349.105C375.549 348.922 375.863 348.656 376.093 348.332C376.718 347.572 377.202 346.721 377.522 345.814C377.291 346.203 377.03 346.576 376.742 346.93Z" fill="black"/>
</g>
</g>
<defs>
<filter id="filter0_b" x="58" y="176.997" width="410.767" height="263.986" filterUnits="userSpaceOnUse" color-interpolation-filters="sRGB">
<feFlood flood-opacity="0" result="BackgroundImageFix"/>
<feGaussianBlur in="BackgroundImage" stdDeviation="2"/>
<feComposite in2="SourceAlpha" operator="in" result="effect1_backgroundBlur"/>
<feBlend mode="normal" in="SourceGraphic" in2="effect1_backgroundBlur" result="shape"/>
</filter>
<linearGradient id="paint0_linear" x1="262.499" y1="1" x2="262.499" y2="610" gradientUnits="userSpaceOnUse">
<stop offset="0.484375" stop-color="#3D567C" stop-opacity="0.79"/>
<stop offset="1" stop-color="#C4C4C4"/>
</linearGradient>
<linearGradient id="paint1_linear" x1="327.456" y1="375.735" x2="380.299" y2="375.735" gradientUnits="userSpaceOnUse">
<stop stop-color="#808080" stop-opacity="0.25"/>
<stop offset="0.54" stop-color="#808080" stop-opacity="0.12"/>
<stop offset="1" stop-color="#808080" stop-opacity="0.1"/>
</linearGradient>
</defs>
</svg>
