<svg width="534" height="619" viewBox="0 0 534 619" fill="none" xmlns="http://www.w3.org/2000/svg">
<g filter="url(#filter0_d)">
<path d="M5 16C5 7.71573 11.7157 1 20 1H529V610H20C11.7157 610 5 603.284 5 595V16Z" fill="url(#paint0_linear)"/>
<path d="M529.5 1V0.5H529H20C11.4396 0.5 4.5 7.43959 4.5 16V595C4.5 603.56 11.4396 610.5 20 610.5H529H529.5V610V1Z" stroke="black" stroke-opacity="0.42"/>
</g>
<path opacity="0.1" d="M161.774 165.883C176.362 152.823 199.267 150.172 220.11 151.2C285.587 154.471 344.691 186.222 395.813 222.139C414.32 235.141 432.542 249.153 444.556 267.059C469.011 303.514 461.76 354.009 427.751 384.037C416.182 394.254 402.159 402.086 387.756 409.032C362.164 421.377 334.53 431.285 305.473 434.108C284.749 436.117 263.768 434.484 243.171 431.675C185.608 423.839 129.121 406.485 81.7712 376.833C61.0038 363.821 41.4259 347.648 32.8668 326.595C24.3077 305.542 29.7863 278.89 51.0134 266.416C59.7858 261.265 70.2738 258.937 80.539 256.751C95.6525 253.533 111.008 250.362 124.642 243.825C138.728 237.069 155.41 224.005 152.604 209.07C149.59 193.016 147.22 178.909 161.774 165.883Z" fill="white"/>
<path opacity="0.1" d="M61.5 200C69.5081 200 76 193.508 76 185.5C76 177.492 69.5081 171 61.5 171C53.4919 171 47 177.492 47 185.5C47 193.508 53.4919 200 61.5 200Z" fill="white"/>
<path opacity="0.1" d="M89 230C93.9706 230 98 226.194 98 221.5C98 216.806 93.9706 213 89 213C84.0294 213 80 216.806 80 221.5C80 226.194 84.0294 230 89 230Z" fill="white"/>
<path opacity="0.1" d="M464.5 254C467.538 254 470 251.761 470 249C470 246.239 467.538 244 464.5 244C461.462 244 459 246.239 459 249C459 251.761 461.462 254 464.5 254Z" fill="white"/>
<path d="M385.174 217.747H283.411V215.655H237.268V217.747H135.086C133.26 217.747 131.509 218.471 130.218 219.759C128.927 221.047 128.202 222.794 128.202 224.615V224.615V363.634C128.202 365.455 128.927 367.202 130.218 368.49C131.509 369.778 133.26 370.502 135.086 370.502H385.174C387 370.502 388.751 369.778 390.042 368.49C391.333 367.202 392.059 365.455 392.059 363.634V224.615C392.058 222.793 391.333 221.047 390.042 219.759C388.751 218.471 387 217.747 385.174 217.747V217.747Z" fill="#3F3D56"/>
<path d="M382.829 229.884H137.431V367.99H382.829V229.884Z" fill="#E6E6E6"/>
<path d="M372.506 237.187H147.838V356.563H372.506V237.187Z" fill="white"/>
<path d="M259.92 226.118C261.31 226.118 262.437 224.994 262.437 223.607C262.437 222.22 261.31 221.096 259.92 221.096C258.53 221.096 257.403 222.22 257.403 223.607C257.403 224.994 258.53 226.118 259.92 226.118Z" fill="#6C63FF"/>
<path d="M398.948 365.479H374.999V363.757C374.999 363.667 374.963 363.58 374.899 363.516C374.835 363.452 374.747 363.416 374.657 363.416H366.445C366.355 363.416 366.268 363.452 366.203 363.516C366.139 363.58 366.103 363.667 366.103 363.757V363.757V365.479H360.971V363.757C360.971 363.667 360.935 363.58 360.871 363.516C360.807 363.452 360.72 363.416 360.629 363.416H352.418C352.327 363.416 352.24 363.452 352.176 363.516C352.112 363.58 352.076 363.667 352.076 363.757V363.757V365.479H346.944V363.757C346.944 363.667 346.908 363.58 346.844 363.516C346.78 363.452 346.693 363.416 346.602 363.416H338.391C338.3 363.416 338.213 363.452 338.149 363.516C338.084 363.58 338.048 363.667 338.048 363.757V363.757V365.479H332.917V363.757C332.917 363.667 332.88 363.58 332.816 363.516C332.752 363.452 332.665 363.416 332.574 363.416H324.363C324.273 363.416 324.186 363.452 324.121 363.516C324.057 363.58 324.021 363.667 324.021 363.757V363.757V365.479H318.889V363.757C318.889 363.667 318.853 363.58 318.789 363.516C318.725 363.452 318.638 363.416 318.547 363.416H310.336C310.245 363.416 310.158 363.452 310.094 363.516C310.03 363.58 309.994 363.667 309.994 363.757V363.757V365.479H304.862V363.757C304.862 363.667 304.826 363.58 304.761 363.516C304.697 363.452 304.61 363.416 304.519 363.416H296.31C296.219 363.416 296.132 363.452 296.068 363.516C296.004 363.58 295.968 363.667 295.968 363.757V363.757V365.479H290.834V363.757C290.834 363.667 290.798 363.58 290.734 363.516C290.67 363.452 290.583 363.416 290.492 363.416H226.171C226.08 363.416 225.993 363.452 225.929 363.516C225.865 363.58 225.829 363.667 225.829 363.757V363.757V365.479H220.697V363.757C220.697 363.667 220.661 363.58 220.597 363.516C220.533 363.452 220.446 363.416 220.355 363.416H212.144C212.053 363.416 211.966 363.452 211.902 363.516C211.838 363.58 211.801 363.667 211.801 363.757V363.757V365.479H206.67V363.757C206.67 363.667 206.634 363.58 206.569 363.516C206.505 363.452 206.418 363.416 206.327 363.416H198.117C198.026 363.416 197.939 363.452 197.875 363.516C197.81 363.58 197.774 363.667 197.774 363.757V363.757V365.479H192.642V363.757C192.642 363.667 192.606 363.58 192.542 363.516C192.478 363.452 192.391 363.416 192.3 363.416H184.089C183.998 363.416 183.911 363.452 183.847 363.516C183.783 363.58 183.747 363.667 183.747 363.757V363.757V365.479H178.616V363.757C178.616 363.667 178.58 363.58 178.516 363.516C178.452 363.452 178.364 363.416 178.274 363.416H170.062C169.971 363.416 169.884 363.452 169.82 363.516C169.755 363.58 169.719 363.667 169.719 363.757V363.757V365.479H164.588V363.757C164.588 363.667 164.552 363.58 164.487 363.516C164.423 363.452 164.336 363.416 164.245 363.416H156.034C155.943 363.416 155.856 363.452 155.792 363.516C155.728 363.58 155.692 363.667 155.692 363.757V363.757V365.479H150.56V363.757C150.56 363.667 150.524 363.58 150.46 363.516C150.396 363.452 150.309 363.416 150.218 363.416H142.005C141.914 363.416 141.827 363.452 141.763 363.516C141.699 363.58 141.663 363.667 141.663 363.757V363.757V365.479H125.927C123.749 365.479 121.66 366.342 120.12 367.879C118.58 369.415 117.715 371.498 117.715 373.671V377.375C117.715 379.548 118.58 381.632 120.12 383.168C121.66 384.704 123.749 385.567 125.927 385.567H398.948C401.126 385.567 403.214 384.704 404.754 383.168C406.294 381.632 407.159 379.548 407.159 377.376V373.672C407.159 371.499 406.294 369.415 404.754 367.879C403.214 366.343 401.126 365.48 398.948 365.48V365.479Z" fill="#3F3D56"/>
<path d="M309.847 245.56H210.497V349.751H309.847V245.56Z" fill="#E6E6E6"/>
<path d="M476 385.22H61V386H476V385.22Z" fill="#E6E6E6"/>
<path d="M435.696 357.956C441.319 363.976 441.609 372.824 441.609 372.824C441.609 372.824 432.783 371.912 427.16 365.892C421.537 359.872 421.247 351.024 421.247 351.024C421.247 351.024 430.073 351.937 435.696 357.956Z" fill="#6C63FF"/>
<path d="M453.398 367.353C447.364 372.963 438.495 373.252 438.495 373.252C438.495 373.252 439.41 364.447 445.443 358.837C451.477 353.227 460.346 352.937 460.346 352.937C460.346 352.937 459.432 361.743 453.398 367.353Z" fill="#6C63FF"/>
<path d="M451.898 385.219H429.705C429.279 385.219 428.862 385.1 428.501 384.875C428.14 384.649 427.85 384.327 427.664 383.945L422.832 374.036C422.663 373.691 422.585 373.308 422.606 372.925C422.626 372.541 422.744 372.169 422.948 371.844C423.152 371.518 423.436 371.25 423.773 371.064C424.11 370.878 424.488 370.78 424.873 370.781H456.73C457.115 370.78 457.494 370.878 457.831 371.064C458.167 371.25 458.451 371.518 458.656 371.844C458.86 372.169 458.977 372.541 458.998 372.925C459.018 373.308 458.94 373.691 458.771 374.036L453.94 383.945C453.754 384.328 453.463 384.65 453.102 384.875C452.741 385.1 452.324 385.22 451.898 385.22L451.898 385.219Z" fill="#E5E5E5"/>
<path d="M84.8427 357.956C90.4658 363.976 90.7564 372.824 90.7564 372.824C90.7564 372.824 81.9303 371.912 76.3073 365.892C70.6842 359.872 70.3936 351.024 70.3936 351.024C70.3936 351.024 79.2197 351.937 84.8427 357.956Z" fill="#6C63FF"/>
<path d="M97.5247 385.219H75.3318C74.9059 385.219 74.4887 385.1 74.1277 384.875C73.7667 384.649 73.4765 384.327 73.2904 383.945L68.4587 374.036C68.2899 373.691 68.212 373.308 68.2323 372.925C68.2526 372.541 68.3704 372.169 68.5745 371.844C68.7787 371.518 69.0626 371.25 69.3994 371.064C69.7363 370.878 70.115 370.78 70.5 370.781H102.357C102.742 370.78 103.121 370.878 103.457 371.064C103.794 371.25 104.078 371.518 104.282 371.844C104.486 372.169 104.604 372.541 104.625 372.925C104.645 373.308 104.567 373.691 104.398 374.036L99.5664 383.945C99.3803 384.328 99.0902 384.65 98.7292 384.875C98.3682 385.1 97.9509 385.22 97.5251 385.22L97.5247 385.219Z" fill="#E6E6E6"/>
<path d="M272.16 275.055C279.452 275.055 285.363 269.157 285.363 261.882C285.363 254.607 279.452 248.709 272.16 248.709C264.867 248.709 258.956 254.607 258.956 261.882C258.956 269.157 264.867 275.055 272.16 275.055Z" fill="#A0616A"/>
<path d="M241.78 349.965L250.306 296.412C250.76 293.564 251.816 290.846 253.404 288.438C254.992 286.029 257.077 283.986 259.518 282.443C261.959 280.901 264.702 279.895 267.564 279.492C270.425 279.089 273.34 279.299 276.114 280.108V280.108C280.963 281.507 285.116 284.66 287.76 288.951C290.405 293.241 291.351 298.361 290.414 303.311L281.496 351.136L241.78 349.965Z" fill="#6C63FF"/>
<path d="M275.805 359.547C276.464 359.113 277.02 358.539 277.434 357.867C277.847 357.195 278.107 356.441 278.197 355.658C278.286 354.874 278.203 354.081 277.952 353.333C277.701 352.586 277.288 351.902 276.744 351.331L285.558 334.302L275.632 335.358L268.783 351.368C267.885 352.345 267.377 353.616 267.355 354.941C267.332 356.267 267.797 357.554 268.661 358.561C269.526 359.568 270.729 360.224 272.045 360.406C273.361 360.588 274.699 360.282 275.805 359.548L275.805 359.547Z" fill="#A0616A"/>
<path d="M277.693 348.327C277.205 348.258 276.75 348.043 276.388 347.71L273.016 344.601C272.651 344.263 272.4 343.822 272.295 343.338C272.19 342.853 272.237 342.348 272.429 341.89L279.169 325.952L278.213 294.458C278.492 292.415 279.574 290.566 281.219 289.319C282.865 288.071 284.94 287.527 286.988 287.805C289.036 288.084 290.889 289.163 292.139 290.805C293.39 292.447 293.936 294.517 293.656 296.56V296.56L295.291 316.357C295.788 322.366 294.081 328.35 290.486 333.196L279.975 347.373C279.773 347.645 279.516 347.872 279.22 348.039C278.924 348.206 278.596 348.308 278.258 348.34C278.07 348.358 277.88 348.354 277.693 348.327V348.327Z" fill="#6C63FF"/>
<path d="M196.123 254.705C196.267 255.48 196.579 256.214 197.038 256.856C197.498 257.498 198.092 258.031 198.78 258.419C199.468 258.807 200.233 259.039 201.021 259.1C201.809 259.161 202.601 259.049 203.341 258.771L215.623 273.509L218.517 263.977L206.41 251.443C205.858 250.238 204.883 249.276 203.668 248.74C202.454 248.203 201.085 248.128 199.819 248.529C198.554 248.931 197.479 249.78 196.798 250.918C196.117 252.056 195.877 253.403 196.123 254.705H196.123Z" fill="#A0616A"/>
<path d="M205.744 260.813C205.997 260.392 206.374 260.058 206.822 259.856L211.007 257.97C211.461 257.767 211.966 257.707 212.455 257.8C212.943 257.893 213.391 258.133 213.738 258.488L225.822 270.894L255.264 282.294C256.145 282.816 256.914 283.505 257.527 284.323C258.141 285.14 258.587 286.071 258.84 287.061C259.093 288.05 259.148 289.08 259.001 290.091C258.855 291.102 258.511 292.074 257.988 292.953C257.465 293.831 256.774 294.598 255.954 295.209C255.133 295.821 254.201 296.265 253.208 296.517C252.216 296.768 251.184 296.822 250.17 296.676C249.157 296.529 248.183 296.185 247.303 295.663V295.663L228.392 289.446C222.653 287.56 217.795 283.658 214.723 278.466L205.736 263.282C205.563 262.99 205.454 262.665 205.416 262.328C205.377 261.992 205.41 261.65 205.513 261.327C205.57 261.147 205.648 260.975 205.745 260.814L205.744 260.813Z" fill="#6C63FF"/>
<path opacity="0.1" d="M282.869 307.559L282.332 324.722L272.429 341.892L280.698 322.759L282.869 307.559Z" fill="black"/>
<path d="M263.218 255.279C264.58 256.887 266.884 257.341 269.01 257.527C273.328 257.905 279.607 257.293 283.826 256.32C284.128 259.232 283.307 262.372 285.026 264.767C285.832 261.867 286.3 258.884 286.422 255.877C286.474 254.589 286.454 253.253 285.929 252.069C285.404 250.885 284.258 249.88 282.939 249.87C283.919 249.128 285.067 248.638 286.282 248.444L282.104 246.35L283.177 245.251L275.614 244.789L277.804 243.401C274.508 242.949 271.172 242.844 267.853 243.088C266.312 243.202 264.701 243.418 263.452 244.309C262.204 245.2 261.482 246.97 262.257 248.278C261.287 248.437 260.373 248.841 259.603 249.451C258.832 250.061 258.231 250.857 257.855 251.764C257.298 253.171 257.349 254.736 257.521 256.236C257.806 258.636 258.365 260.995 259.187 263.268" fill="#2F2E41"/>
<path d="M319.663 222.279L199.349 249.991C198.758 250.126 198.138 250.022 197.624 249.702C197.11 249.381 196.744 248.87 196.607 248.281L189.717 218.506C189.581 217.917 189.685 217.298 190.006 216.785C190.328 216.272 190.84 215.907 191.43 215.77L311.744 188.058C312.335 187.923 312.956 188.027 313.47 188.348C313.984 188.668 314.35 189.179 314.487 189.768L321.377 219.543C321.512 220.133 321.408 220.752 321.087 221.265C320.766 221.777 320.254 222.142 319.663 222.279Z" fill="white"/>
<path d="M319.663 222.279L199.349 249.991C198.758 250.126 198.138 250.022 197.624 249.702C197.11 249.381 196.744 248.87 196.607 248.281L189.717 218.506C189.581 217.917 189.685 217.298 190.006 216.785C190.328 216.272 190.84 215.907 191.43 215.77L311.744 188.058C312.335 187.923 312.956 188.027 313.47 188.348C313.984 188.668 314.35 189.179 314.487 189.768L321.377 219.543C321.512 220.133 321.408 220.752 321.087 221.265C320.766 221.777 320.254 222.142 319.663 222.279ZM191.636 216.66C191.282 216.742 190.974 216.961 190.782 217.268C190.589 217.576 190.526 217.948 190.608 218.301L197.498 248.076C197.58 248.43 197.799 248.737 198.108 248.929C198.417 249.121 198.789 249.184 199.144 249.102L319.458 221.39C319.812 221.309 320.119 221.09 320.312 220.782C320.505 220.474 320.567 220.102 320.486 219.749L313.596 189.973C313.513 189.62 313.294 189.313 312.985 189.121C312.677 188.928 312.304 188.866 311.95 188.947L191.636 216.66Z" fill="#E6E6E6"/>
<path d="M233.384 216.568C233.185 216.613 232.997 216.697 232.831 216.815C232.665 216.932 232.523 217.082 232.415 217.254C232.307 217.426 232.233 217.618 232.199 217.819C232.165 218.02 232.171 218.225 232.217 218.423C232.262 218.621 232.346 218.809 232.465 218.975C232.583 219.14 232.732 219.281 232.905 219.39C233.078 219.498 233.27 219.571 233.471 219.605C233.672 219.638 233.878 219.632 234.077 219.587L234.082 219.586L305.392 203.161C305.793 203.068 306.14 202.82 306.358 202.472C306.575 202.124 306.646 201.704 306.553 201.304C306.461 200.904 306.213 200.557 305.864 200.34C305.515 200.122 305.094 200.051 304.694 200.143L233.384 216.568Z" fill="#E6E6E6"/>
<path d="M235.479 225.623C235.28 225.668 235.093 225.752 234.926 225.87C234.76 225.988 234.619 226.137 234.51 226.309C234.402 226.481 234.329 226.673 234.295 226.874C234.261 227.075 234.267 227.28 234.312 227.478C234.358 227.677 234.442 227.864 234.56 228.03C234.678 228.196 234.828 228.337 235.001 228.445C235.173 228.553 235.366 228.626 235.567 228.66C235.768 228.693 235.974 228.688 236.172 228.642L236.178 228.641L266.862 221.573C267.264 221.481 267.612 221.234 267.831 220.886C268.049 220.538 268.12 220.118 268.029 219.718C267.937 219.318 267.689 218.97 267.341 218.752C266.992 218.533 266.571 218.462 266.169 218.554L266.164 218.555L235.479 225.623Z" fill="#E6E6E6"/>
<path d="M213.889 236.637C219.034 236.637 223.204 232.476 223.204 227.344C223.204 222.211 219.034 218.051 213.889 218.051C208.745 218.051 204.575 222.211 204.575 227.344C204.575 232.476 208.745 236.637 213.889 236.637Z" fill="#6C63FF"/>
<path d="M213.627 232.705C213.322 232.775 213.003 232.745 212.717 232.619L212.699 232.611L208.951 230.913C208.777 230.835 208.62 230.723 208.489 230.583C208.359 230.444 208.257 230.281 208.19 230.102C208.123 229.924 208.091 229.734 208.098 229.544C208.104 229.353 208.148 229.166 208.228 228.992C208.307 228.819 208.419 228.662 208.559 228.532C208.699 228.402 208.863 228.301 209.042 228.234C209.22 228.167 209.411 228.137 209.602 228.143C209.793 228.15 209.98 228.194 210.154 228.273L212.583 229.376L215.99 221.907C216.15 221.558 216.442 221.286 216.802 221.151C217.163 221.016 217.563 221.03 217.913 221.189V221.189L217.893 221.238L217.914 221.189C218.265 221.348 218.537 221.64 218.672 222C218.807 222.36 218.793 222.758 218.634 223.108L214.627 231.894C214.534 232.096 214.396 232.275 214.223 232.415C214.049 232.556 213.846 232.654 213.629 232.704L213.627 232.705Z" fill="white"/>
<defs>
<filter id="filter0_d" x="0" y="0" width="534" height="619" filterUnits="userSpaceOnUse" color-interpolation-filters="sRGB">
<feFlood flood-opacity="0" result="BackgroundImageFix"/>
<feColorMatrix in="SourceAlpha" type="matrix" values="0 0 0 0 0 0 0 0 0 0 0 0 0 0 0 0 0 0 127 0"/>
<feOffset dy="4"/>
<feGaussianBlur stdDeviation="2"/>
<feColorMatrix type="matrix" values="0 0 0 0 0 0 0 0 0 0 0 0 0 0 0 0 0 0 0.25 0"/>
<feBlend mode="normal" in2="BackgroundImageFix" result="effect1_dropShadow"/>
<feBlend mode="normal" in="SourceGraphic" in2="effect1_dropShadow" result="shape"/>
</filter>
<linearGradient id="paint0_linear" x1="267" y1="1" x2="267" y2="610" gradientUnits="userSpaceOnUse">
<stop offset="0.484375" stop-color="#3D567C" stop-opacity="0.79"/>
<stop offset="1" stop-color="#C4C4C4"/>
</linearGradient>
</defs>
</svg>
