<svg id="icons" enable-background="new 0 0 64 64" height="512" viewBox="0 0 64 64" width="512" xmlns="http://www.w3.org/2000/svg"><path d="m1.02 10h2.99v48h-2.99z" fill="#545c66"/><path d="m62.99 10h-30.99-27.99-2.99-.02v-2c0-1.11.9-2 2-2h57.99c1.1 0 2 .89 2 2z" fill="#ccd1d9"/><path d="m32 38v20h-27.99v-48h27.99v4 8 4 4 4z" fill="#656d78"/><g style="fill:none;stroke:#000;stroke-width:2;stroke-linecap:round;stroke-linejoin:round;stroke-miterlimit:10"><rect height="0" width="0" x="4" y="7.999"/><rect height="0" width="0" x="7" y="7.999"/><rect height="0" width="0" x="10" y="7.999"/></g><path d="m27.006 14.995h-19.002c-.553 0-1-.447-1-1s.447-1 1-1h19.002c.553 0 1 .447 1 1s-.447 1-1 1z" fill="#5d9cec"/><path d="m29.004 18.995h-19c-.553 0-1-.447-1-1s.447-1 1-1h19c.553 0 1 .447 1 1s-.447 1-1 1z" fill="#a0d468"/><path d="m24.008 51.019h-14.004c-.553 0-1-.447-1-1s.447-1 1-1h14.004c.553 0 1 .447 1 1s-.447 1-1 1z" fill="#a0d468"/><path d="m14.004 55.007h-6c-.553 0-1-.447-1-1s.447-1 1-1h6c.553 0 1 .447 1 1s-.447 1-1 1z" fill="#5d9cec"/><path d="m16.004 22.995h-4c-.553 0-1-.447-1-1s.447-1 1-1h4c.553 0 1 .447 1 1s-.447 1-1 1z" fill="#ed5565"/><path d="m31.996 22.995h-11.992c-.553 0-1-.447-1-1s.447-1 1-1h11.992c.553 0 1 .447 1 1s-.447 1-1 1z" fill="#ed5565"/><path d="m32.002 26.995h-17.996c-.553 0-1-.447-1-1s.447-1 1-1h17.996c.553 0 1 .447 1 1s-.447 1-1 1z" fill="#ffce54"/><path d="m25.006 30.995h-11c-.553 0-1-.447-1-1s.447-1 1-1h11c.553 0 1 .447 1 1s-.447 1-1 1z" fill="#ccd1d9"/><path d="m32.012 39.003h-18.006c-.553 0-1-.447-1-1s.447-1 1-1h18.006c.553 0 1 .447 1 1s-.448 1-1 1z" fill="#ccd1d9"/><path d="m27.006 42.996h-13c-.553 0-1-.447-1-1s.447-1 1-1h13c.553 0 1 .447 1 1s-.447 1-1 1z" fill="#ffce54"/><path d="m32.002 34.995h-10.996c-.553 0-1-.447-1-1s.447-1 1-1h10.996c.553 0 1 .447 1 1s-.447 1-1 1z" fill="#ccd1d9"/><path d="m17.006 34.995h-3c-.553 0-1-.447-1-1s.447-1 1-1h3c.553 0 1 .447 1 1s-.447 1-1 1z" fill="#ccd1d9"/><path d="m21.01 47.007h-9.006c-.553 0-1-.447-1-1s.447-1 1-1h9.006c.553 0 1 .447 1 1s-.447 1-1 1z" fill="#ed5565"/><path d="m32 10h30.99.01v48h-31z" fill="#e6e9ed"/><path d="m58.992 33.998h-23c-.553 0-1 .447-1 1v10.998c0 .553.447 1 1 1h23c.553 0 1-.447 1-1v-10.998c0-.553-.447-1-1-1z" fill="#5d9cec"/><path d="m59.992 29.996c0-.001 0-.001 0 0v-16.001c0-.553-.447-1-1-1h-26.992v2 7.005 4 2.996 2h26.992c.553 0 1-.447 1-1z" fill="#5d9cec"/><path d="m58.266 30.996-8.493-10.626c-.026-.032-.063-.049-.092-.077-.025-.025-.039-.058-.067-.08-.022-.018-.05-.022-.073-.038-.061-.04-.121-.07-.188-.096-.057-.023-.111-.043-.17-.054-.065-.013-.128-.016-.194-.016-.063 0-.123.003-.186.015-.061.012-.117.032-.176.056-.065.025-.126.056-.186.095-.023.016-.051.021-.073.038-.028.022-.042.055-.067.08-.029.028-.065.045-.092.077l-8.49 10.626z" fill="#656d78"/><path d="m58.992 50.997h-23c-.553 0-1-.447-1-1s.447-1 1-1h23c.553 0 1 .447 1 1s-.447 1-1 1z" fill="#ccd1d9"/><path d="m47.98 54.997h-11.988c-.553 0-1-.447-1-1s.447-1 1-1h11.988c.553 0 1 .447 1 1s-.447 1-1 1z" fill="#ccd1d9"/><path d="m58.22 46.996-5.414-7.581c-.033-.046-.08-.072-.119-.111s-.066-.088-.113-.121c-.01-.007-.021-.008-.032-.015-.061-.04-.128-.062-.195-.088-.055-.021-.106-.05-.163-.061-.065-.013-.131-.006-.198-.006-.061.001-.12-.006-.18.005-.061.012-.115.042-.173.064-.064.025-.13.046-.188.085-.01.007-.022.008-.032.015-.047.033-.074.082-.114.122-.038.038-.086.064-.118.11l-5.414 7.581h12.453z" fill="#656d78"/><path d="m40.025 39.494c-.827 0-1.504-.669-1.504-1.496s.662-1.496 1.488-1.496h.016c.826 0 1.496.669 1.496 1.496s-.669 1.496-1.496 1.496z" fill="#ffce54"/><path d="m47.312 41.424c-.035-.05-.085-.079-.126-.121-.042-.041-.07-.091-.12-.125-.007-.005-.015-.005-.022-.01-.065-.044-.139-.065-.212-.093-.05-.018-.097-.047-.147-.057-.063-.012-.127-.003-.191-.003s-.128-.009-.19.003c-.052.01-.099.039-.148.057-.073.027-.146.049-.212.093-.008.005-.016.005-.022.01-.05.034-.079.085-.12.126s-.092.07-.126.12l-3.9 5.572h3.992l2.751-3.852z" fill="#545c66"/><path d="m42.643 23.234c-.029-.024-.065-.032-.096-.054-.062-.041-.121-.079-.188-.105-.058-.023-.114-.036-.174-.048-.063-.013-.125-.022-.19-.022-.066 0-.128.01-.193.022-.06.012-.115.025-.173.048-.065.025-.123.062-.183.102-.033.021-.07.03-.102.057-.02.017-.028.041-.047.06-.02.02-.045.028-.063.05l-6.561 7.653h5.046l4.629-5.793-1.594-1.86c-.02-.023-.047-.033-.068-.054-.017-.018-.025-.04-.043-.056z" fill="#545c66"/></svg>